<svg xmlns="http://www.w3.org/2000/svg" xmlns:xlink="http://www.w3.org/1999/xlink" viewBox="0 0 773.37 218.26"><defs><style>.cls-1{isolation:isolate;}.cls-2{fill:#2f3c47;}.cls-3{fill:#ec1e24;}.cls-4{fill:url(#linear-gradient);}.cls-5{fill:#e5e6e6;opacity:0.8;mix-blend-mode:multiply;}.cls-6{fill:url(#linear-gradient-2);}</style><linearGradient id="linear-gradient" x1="181.87" y1="205.65" x2="107.65" y2="13.47" gradientUnits="userSpaceOnUse"><stop offset="0" stop-color="#808184"/><stop offset="0.01" stop-color="#838487"/><stop offset="0.18" stop-color="#a1a2a4"/><stop offset="0.36" stop-color="#b9b9ba"/><stop offset="0.54" stop-color="#cacaca"/><stop offset="0.75" stop-color="#d4d4d4"/><stop offset="1" stop-color="#d7d7d7"/></linearGradient><linearGradient id="linear-gradient-2" x1="33.75" y1="230.79" x2="96.87" y2="64.69" gradientUnits="userSpaceOnUse"><stop offset="0" stop-color="#ab1f24"/><stop offset="0.08" stop-color="#b61f24"/><stop offset="0.27" stop-color="#ce1e24"/><stop offset="0.48" stop-color="#df1e24"/><stop offset="0.71" stop-color="#e91e24"/><stop offset="1" stop-color="#ec1e24"/></linearGradient></defs><title>Logo_Cover</title><g class="cls-1"><g id="Layer_2" data-name="Layer 2"><g id="Layer_1-2" data-name="Layer 1"><path class="cls-2" d="M234.18,145.46V115.55h3.5V128h.09a9.51,9.51,0,0,1,7.73-3.82c5.89,0,8.93,4.23,8.93,10.67,0,7.6-3.91,11.14-9,11.14a9.1,9.1,0,0,1-7.92-4.1h-.09l-.37,3.55Zm3.5-6.31a8.49,8.49,0,0,0,7.18,4.1c3.31,0,6.07-2.49,6.07-8.33,0-4.46-1.75-8-6.26-8a8.54,8.54,0,0,0-7,4Z"/><path class="cls-2" d="M266.11,145.46,257,124.75h3.44l4.93,11.73,2.34,5.9h.1l2.43-6.59,4.42-11h3.6l-10.91,25.54c-1.47,3.54-2.85,5.56-6.31,5.56a8.7,8.7,0,0,1-3.45-.78v-2.8a6.85,6.85,0,0,0,3.22.92c1.8,0,2.67-1.11,3.59-3.45Z"/><path class="cls-3" d="M292,143.6c3,2,8.07,3.29,12.14,3.29,3.41,0,5.8-.66,5.8-3.35,0-6.4-17.28-5.56-17.28-17.59,0-7,6.16-10.28,13.81-10.28a24.52,24.52,0,0,1,10.65,2v7.53a21.89,21.89,0,0,0-10-2.51c-3,0-5.14,1-5.14,3.06,0,5.74,17.4,5.5,17.4,17.76,0,7.18-6.94,10.4-14.59,10.4-5.27,0-10.77-1.49-12.8-2.87Z"/><path class="cls-3" d="M357,151.43c-1.85,1.2-5.92,2.63-12,2.63-11.3,0-21.18-6.16-21.18-19.37,0-12.33,9.82-19.14,21.36-19.14a27.46,27.46,0,0,1,11.36,2.09v8a18.64,18.64,0,0,0-10.52-2.87c-7.72,0-12.38,4.49-12.38,12,0,7.83,5.38,12.2,12.8,12.2A17.37,17.37,0,0,0,357,143.6Z"/><path class="cls-3" d="M388.92,134.81h8.85v16a37.15,37.15,0,0,1-15.32,3.23c-11.84,0-21.59-6.22-21.59-18.66,0-12.92,10.23-19.85,23.21-19.85a31.47,31.47,0,0,1,12.38,2.15v7.84a27.22,27.22,0,0,0-11.9-2.82c-8,0-13.88,3.47-13.88,12.38,0,7.84,5.14,11.67,12.74,11.67a12.91,12.91,0,0,0,5.51-.9Z"/><path class="cls-2" d="M334.92,94.73h-.46a14.56,14.56,0,0,1-5.3,6,13.54,13.54,0,0,1-7.23,2,14.79,14.79,0,0,1-13.11-7.18q-4.67-7.19-4.67-21.65t4.73-21.6q4.72-7.23,12.36-7.23a15,15,0,0,1,7.52,1.88A11.15,11.15,0,0,1,333.55,52h.57V25.68h12.54v75.78H336.17Zm-15.61-34.3q-1.95,3.88-1.94,11.51v3.88q0,7.74,1.94,11.62a6.62,6.62,0,0,0,6.38,3.87,6.74,6.74,0,0,0,6.44-3.87q2-3.87,2-11.62V72.06q0-7.64-2-11.57a6.73,6.73,0,0,0-6.44-3.93A6.62,6.62,0,0,0,319.31,60.43Z"/><path class="cls-2" d="M387.45,94.73H387a14.54,14.54,0,0,1-5.29,6,13.58,13.58,0,0,1-7.24,2,14.79,14.79,0,0,1-13.11-7.18q-4.67-7.19-4.67-21.65t4.73-21.6q4.72-7.23,12.36-7.23a15,15,0,0,1,7.52,1.88A11.15,11.15,0,0,1,386.08,52h.57V25.68h12.54v75.78H388.7Zm-15.61-34.3q-1.93,3.88-1.94,11.51v3.88q0,7.74,1.94,11.62a6.62,6.62,0,0,0,6.38,3.87,6.74,6.74,0,0,0,6.44-3.87q2-3.87,2-11.62V72.06q0-7.64-2-11.57a6.73,6.73,0,0,0-6.44-3.93A6.62,6.62,0,0,0,371.84,60.43Z"/><path class="cls-2" d="M506.21,52.11q5,7.08,5,21.88v3.08H483.25q.12,7.75,2,11.57a6.6,6.6,0,0,0,6.43,3.82,5.94,5.94,0,0,0,5.19-2.8A13.64,13.64,0,0,0,498.75,82h12.42q0,10.26-5.36,15.5t-14.13,5.24Q470,102.71,470,74q0-28.93,21.2-28.94Q501.25,45.05,506.21,52.11ZM485.47,58.5c-1.25,2.12-2,5.28-2.11,9.45h14.7q0-6.15-1.71-9.4a5.48,5.48,0,0,0-5.12-3.25A6.24,6.24,0,0,0,485.47,58.5Z"/><path class="cls-2" d="M557.38,49.32q3.93,4.27,3.93,13.51v38.63H548.77V66.25c0-3.42-.62-5.89-1.88-7.41a6.61,6.61,0,0,0-5.41-2.28,7.47,7.47,0,0,0-6.1,3.13,12.49,12.49,0,0,0-2.45,7.92v33.85H520.4V46.3h10.37l1.36,6.84h.58a19.64,19.64,0,0,1,5.86-5.87,14.83,14.83,0,0,1,8.15-2.22Q553.44,45.05,557.38,49.32Z"/><path class="cls-2" d="M594.12,56.9h-8V87.55a4.65,4.65,0,0,0,1.14,3.36,4.34,4.34,0,0,0,3.3,1.2h3.53v9.35a27.74,27.74,0,0,1-3.58.85,22.34,22.34,0,0,1-3.94.4q-6.95,0-10-4.22a17.75,17.75,0,0,1-3-10.59v-31H568V46.3h5.58l2.08-16.63h10.46V46.3h8Z"/><path class="cls-2" d="M630.7,94.73h-.57a19.81,19.81,0,0,1-5.92,5.76,14.89,14.89,0,0,1-8.09,2.22q-6.84,0-10.71-4.22t-3.88-13.56V46.3h12.54V81.52c0,3.49.6,6,1.82,7.52a6.57,6.57,0,0,0,5.47,2.27,7.47,7.47,0,0,0,6.1-3.13,12.12,12.12,0,0,0,2.45-7.69V46.3h12.53v55.16H632Z"/><path class="cls-2" d="M679.59,45.39c.91.23,1.48.38,1.71.46V58h-4.45a9.8,9.8,0,0,0-7.4,3q-2.85,3-2.85,9.8v30.66H654.06V46.3h10.37l1.48,8.09h.69a20.86,20.86,0,0,1,3.53-6.72,7.27,7.27,0,0,1,5.93-2.62A14.87,14.87,0,0,1,679.59,45.39Z"/><path class="cls-2" d="M721,52.11Q726,59.19,726,74v3.08H698.05q.11,7.75,2,11.57a6.62,6.62,0,0,0,6.44,3.82,5.94,5.94,0,0,0,5.19-2.8A13.64,13.64,0,0,0,713.55,82H726q0,10.26-5.36,15.5t-14.13,5.24q-21.65,0-21.65-28.72,0-28.93,21.2-28.94Q716.05,45.05,721,52.11ZM700.27,58.5c-1.25,2.12-1.95,5.28-2.11,9.45h14.7q0-6.15-1.71-9.4A5.49,5.49,0,0,0,706,55.3,6.23,6.23,0,0,0,700.27,58.5Z"/><path class="cls-2" d="M766.76,49.09a13.18,13.18,0,0,1,5.24,11l-.11,2.39H759.13v-.23a8,8,0,0,0-1.71-5.18A5.7,5.7,0,0,0,753,55.3a7.08,7.08,0,0,0-4.72,1.49,4.91,4.91,0,0,0-1.77,4,4.52,4.52,0,0,0,2.39,4.28,36.19,36.19,0,0,0,7.52,2.68,61.53,61.53,0,0,1,8.66,2.84,14.1,14.1,0,0,1,5.87,4.9q2.45,3.42,2.45,9.35,0,17.9-20.51,17.89-9.35,0-14.7-4.79a16.14,16.14,0,0,1-5.36-12.65l.12-1.36h12.87v.8c.08,2.65.84,4.61,2.28,5.86a7.71,7.71,0,0,0,5.25,1.89A9.09,9.09,0,0,0,758.44,91a5,5,0,0,0,2.17-4.5,5.22,5.22,0,0,0-2.57-4.9,38.86,38.86,0,0,0-8-3.08,52.52,52.52,0,0,1-8.43-2.9,14.32,14.32,0,0,1-5.64-4.79q-2.34-3.26-2.34-9,0-8.08,5.53-12.47t14.19-4.39Q761.52,45.05,766.76,49.09Z"/><polygon class="cls-4" points="137.89 192.58 214.92 192.58 141.38 0 64.35 0 137.89 192.58"/><polygon class="cls-5" points="194.38 192.58 140.44 51.35 83.96 51.35 137.89 192.58 194.38 192.58"/><polygon class="cls-6" points="77.03 218.26 0 218.26 63.41 51.35 140.44 51.35 77.03 218.26"/><polygon class="cls-2" points="260.9 29.67 288.32 101.46 299.82 101.46 272.4 29.67 260.9 29.67"/><polygon class="cls-2" points="264 53.51 245.69 101.46 234.18 101.46 258.25 38.44 264 53.51"/><polygon class="cls-2" points="272.98 77.03 249.11 77.03 249.11 86.07 276.43 86.07 272.98 77.03"/><polygon class="cls-2" points="449.59 101.46 422.18 29.67 410.67 29.67 438.09 101.46 449.59 101.46"/><polygon class="cls-2" points="444.49 72.38 460.8 29.67 472.3 29.67 450.24 87.44 444.49 72.38"/></g></g></g></svg>