<svg xmlns="http://www.w3.org/2000/svg" viewBox="0 0 73.43 78.54"><defs><style>.cls-1{fill:#30302f;}</style></defs><title>What_B2B</title><g id="Layer_2" data-name="Layer 2"><g id="Layer_1-2" data-name="Layer 1"><path class="cls-1" d="M32,58.68v-2H29.26V17.17H2.75V56.68H0v2H32Zm-27.26-2V19.17H27.26V56.68Z"/><rect class="cls-1" x="9.26" y="25.02" width="4.4" height="4.4"/><rect class="cls-1" x="18.35" y="25.02" width="4.4" height="4.4"/><rect class="cls-1" x="9.26" y="33.52" width="4.4" height="4.4"/><rect class="cls-1" x="18.35" y="33.52" width="4.4" height="4.4"/><rect class="cls-1" x="9.26" y="42.02" width="4.4" height="4.4"/><rect class="cls-1" x="18.35" y="42.02" width="4.4" height="4.4"/><path class="cls-1" d="M70.69,56.68V17.17H44.17V56.68H41.42v2h32v-2Zm-24.52,0V19.17H68.69V56.68Z"/><rect class="cls-1" x="50.69" y="25.02" width="4.4" height="4.4"/><rect class="cls-1" x="59.77" y="25.02" width="4.4" height="4.4"/><rect class="cls-1" x="50.69" y="33.52" width="4.4" height="4.4"/><rect class="cls-1" x="59.77" y="33.52" width="4.4" height="4.4"/><rect class="cls-1" x="50.69" y="42.02" width="4.4" height="4.4"/><rect class="cls-1" x="59.77" y="42.02" width="4.4" height="4.4"/><polygon class="cls-1" points="31.09 7.29 29.15 5.35 46.7 5.35 46.7 3.35 29.15 3.35 31.09 1.41 29.67 0 25.32 4.35 29.67 8.71 31.09 7.29"/><polygon class="cls-1" points="42.35 71.25 44.28 73.19 26.73 73.19 26.73 75.19 44.28 75.19 42.35 77.13 43.76 78.54 48.11 74.19 43.76 69.83 42.35 71.25"/></g></g></svg>