<svg xmlns="http://www.w3.org/2000/svg" viewBox="0 0 36.83 41.69"><defs><style>.cls-1{fill:#2f3c47;}</style></defs><title>Why_Chem</title><g id="Layer_2" data-name="Layer 2"><g id="Layer_1-2" data-name="Layer 1"><path class="cls-1" d="M35.4,28.47l.08-15.25a1.83,1.83,0,0,0,1.35-1.77,1.84,1.84,0,0,0-3.12-1.32L20.32,2.3a2.22,2.22,0,0,0,.06-.46,1.85,1.85,0,0,0-3.69,0,1.63,1.63,0,0,0,.06.45L3.13,10.13a1.84,1.84,0,1,0-1.79,3.09V28.47a1.84,1.84,0,1,0,1.78,3.1l13.29,7.81a1.84,1.84,0,1,0,3.63.47A2.13,2.13,0,0,0,20,39.4L33.6,31.56a1.85,1.85,0,0,0,3.13-1.32A1.86,1.86,0,0,0,35.4,28.47Zm-1.81.45-14.2-8.07,14.42-8a1.83,1.83,0,0,0,.66.35l-.08,15.25A1.81,1.81,0,0,0,33.59,28.92ZM33.24,12,18.87,20,19,3.62a1.94,1.94,0,0,0,.79-.45L33.2,11a2.22,2.22,0,0,0-.06.45A1.81,1.81,0,0,0,33.24,12ZM18,3.61,17.87,20,3.63,11.89a1.56,1.56,0,0,0,.06-.44A2.12,2.12,0,0,0,3.63,11L17.25,3.17A1.9,1.9,0,0,0,18,3.61ZM3.14,12.77l14.2,8.07L3,28.79a2.08,2.08,0,0,0-.63-.32V13.22A1.83,1.83,0,0,0,3.14,12.77Zm.43,16.84L17.85,21.7,17.7,38.08a1.84,1.84,0,0,0-.78.44L3.62,30.7a1.77,1.77,0,0,0,.07-.46A1.9,1.9,0,0,0,3.57,29.61Zm15.14,8.48.15-16.38L33.1,29.8a1.64,1.64,0,0,0,0,.88L19.48,38.53A1.75,1.75,0,0,0,18.71,38.09Z"/></g></g></svg>