<svg xmlns="http://www.w3.org/2000/svg" viewBox="0 0 70.62 63.69"><defs><style>.cls-1{fill:#30302f;}</style></defs><title>What_Enterprise</title><g id="Layer_2" data-name="Layer 2"><g id="Layer_1-2" data-name="Layer 1"><path class="cls-1" d="M66.9,61.69V31.24H48.59v-28H46.27V0H24.39V3.28H22.07v28H3.79V61.69H0v2H70.62v-2Zm-61.11,0V33.24H22.07V61.69Zm18.28,0V5.28h2.32V2H44.27V5.28h2.32V61.69Zm24.54,0V33.24H64.9V61.69Z"/><path class="cls-1" d="M27.62,35.44H34V29H27.62Zm2-4.4H32v2.4H29.62Z"/><path class="cls-1" d="M36.7,35.44h6.4V29H36.7Zm2-4.4h2.4v2.4H38.7Z"/><path class="cls-1" d="M27.62,43.94H34v-6.4H27.62Zm2-4.4H32v2.4H29.62Z"/><path class="cls-1" d="M36.7,43.94h6.4v-6.4H36.7Zm2-4.4h2.4v2.4H38.7Z"/><path class="cls-1" d="M27.62,26.94H34v-6.4H27.62Zm2-4.4H32v2.4H29.62Z"/><path class="cls-1" d="M36.7,26.94h6.4v-6.4H36.7Zm2-4.4h2.4v2.4H38.7Z"/><path class="cls-1" d="M27.62,18.44H34V12H27.62Zm2-4.4H32v2.4H29.62Z"/><path class="cls-1" d="M36.7,18.44h6.4V12H36.7Zm2-4.4h2.4v2.4H38.7Z"/><path class="cls-1" d="M27.62,52.43H34V46H27.62Zm2-4.39H32v2.39H29.62Z"/><path class="cls-1" d="M36.7,52.43h6.4V46H36.7Zm2-4.39h2.4v2.39H38.7Z"/><path class="cls-1" d="M51,43.22H62.63V37.54H51Zm9.59-2h-2.8V39.54h2.8ZM53,39.54h2.79v1.68H53Z"/><path class="cls-1" d="M51,51.12H62.63V45.44H51Zm9.59-2h-2.8V47.44h2.8ZM53,47.44h2.79v1.68H53Z"/><path class="cls-1" d="M8.21,43.22H19.8V37.54H8.21Zm9.59-2H15V39.54H17.8Zm-7.59-1.68H13v1.68h-2.8Z"/><path class="cls-1" d="M8.21,51.12H19.8V45.44H8.21Zm9.59-2H15V47.44H17.8Zm-7.59-1.68H13v1.68h-2.8Z"/></g></g></svg>