<svg xmlns="http://www.w3.org/2000/svg" viewBox="0 0 187.26 63.69"><defs><style>.cls-1{fill:#2f3c47;}</style></defs><title>Why_Platform</title><g id="Layer_2" data-name="Layer 2"><g id="Layer_1-2" data-name="Layer 1"><path class="cls-1" d="M27.62,35.44H34V29H27.62Zm2-4.4H32v2.4H29.62Z"/><path class="cls-1" d="M36.7,35.44h6.4V29H36.7Zm2-4.4h2.4v2.4H38.7Z"/><path class="cls-1" d="M27.62,43.94H34v-6.4H27.62Zm2-4.4H32v2.4H29.62Z"/><path class="cls-1" d="M36.7,43.94h6.4v-6.4H36.7Zm2-4.4h2.4v2.4H38.7Z"/><path class="cls-1" d="M27.62,26.94H34v-6.4H27.62Zm2-4.4H32v2.4H29.62Z"/><path class="cls-1" d="M36.7,26.94h6.4v-6.4H36.7Zm2-4.4h2.4v2.4H38.7Z"/><path class="cls-1" d="M27.62,18.44H34V12H27.62Zm2-4.4H32v2.4H29.62Z"/><path class="cls-1" d="M36.7,18.44h6.4V12H36.7Zm2-4.4h2.4v2.4H38.7Z"/><path class="cls-1" d="M27.62,52.44H34V46H27.62Zm2-4.4H32v2.4H29.62Z"/><path class="cls-1" d="M36.7,52.44h6.4V46H36.7Zm2-4.4h2.4v2.4H38.7Z"/><path class="cls-1" d="M8.21,43.22H19.8V37.54H8.21Zm9.59-2H15V39.54H17.8Zm-7.59-1.68H13v1.68h-2.8Z"/><path class="cls-1" d="M8.21,51.12H19.8V45.44H8.21Zm9.59-2H15V47.44H17.8Zm-7.59-1.68H13v1.68h-2.8Z"/><path class="cls-1" d="M51,43.22H62.6V37.54H51Zm9.59-2H57.81V39.54H60.6ZM53,39.54h2.8v1.68H53Z"/><path class="cls-1" d="M51,51.12H62.6V45.44H51Zm9.59-2H57.81V47.44H60.6ZM53,47.44h2.8v1.68H53Z"/><path class="cls-1" d="M104.7,35.44h6.4V29h-6.4Zm2-4.4h2.4v2.4h-2.4Z"/><path class="cls-1" d="M95.62,35.44H102V29h-6.4Zm2-4.4H100v2.4h-2.4Z"/><path class="cls-1" d="M104.7,43.94h6.4v-6.4h-6.4Zm2-4.4h2.4v2.4h-2.4Z"/><path class="cls-1" d="M95.62,43.94H102v-6.4h-6.4Zm2-4.4H100v2.4h-2.4Z"/><path class="cls-1" d="M104.7,26.94h6.4v-6.4h-6.4Zm2-4.4h2.4v2.4h-2.4Z"/><path class="cls-1" d="M95.62,26.94H102v-6.4h-6.4Zm2-4.4H100v2.4h-2.4Z"/><path class="cls-1" d="M104.7,18.44h6.4V12h-6.4Zm2-4.4h2.4v2.4h-2.4Z"/><path class="cls-1" d="M95.62,18.44H102V12h-6.4Zm2-4.4H100v2.4h-2.4Z"/><path class="cls-1" d="M104.7,52.44h6.4V46h-6.4Zm2-4.4h2.4v2.4h-2.4Z"/><path class="cls-1" d="M95.62,52.44H102V46h-6.4Zm2-4.4H100v2.4h-2.4Z"/><path class="cls-1" d="M118.92,43.22h11.59V37.54H118.92Zm9.59-2h-2.8V39.54h2.8Zm-7.59-1.68h2.79v1.68h-2.79Z"/><path class="cls-1" d="M118.92,51.12h11.59V45.44H118.92Zm9.59-2h-2.8V47.44h2.8Zm-7.59-1.68h2.79v1.68h-2.79Z"/><path class="cls-1" d="M165.23,61.69V3.28h-2.32V0H141V3.28h-2.32V61.69h-3.79V31.24H116.64v-28h-2.32V0H92.45V3.28H90.13V61.69H66.88V31.24H48.59v-28H46.27V0H24.39V3.28H22.07v28H3.79V61.69H0v2H187.26v-2Zm-159.44,0V33.24H22.07V61.69Zm18.28,0V5.28h2.32V2H44.27V5.28h2.32V61.69Zm24.52,0V33.24H64.88V61.69Zm43.54,0V5.28h2.32V2h17.87V5.28h2.32V61.69Zm24.51,0V33.24h16.29V61.69Zm24.08,0V5.28H143V2h17.87V5.28h2.32V61.69Z"/><path class="cls-1" d="M144.26,35.44h6.4V29h-6.4Zm2-4.4h2.4v2.4h-2.4Z"/><path class="cls-1" d="M153.34,35.44h6.4V29h-6.4Zm2-4.4h2.4v2.4h-2.4Z"/><path class="cls-1" d="M144.26,43.94h6.4v-6.4h-6.4Zm2-4.4h2.4v2.4h-2.4Z"/><path class="cls-1" d="M153.34,43.94h6.4v-6.4h-6.4Zm2-4.4h2.4v2.4h-2.4Z"/><path class="cls-1" d="M144.26,26.94h6.4v-6.4h-6.4Zm2-4.4h2.4v2.4h-2.4Z"/><path class="cls-1" d="M153.34,26.94h6.4v-6.4h-6.4Zm2-4.4h2.4v2.4h-2.4Z"/><path class="cls-1" d="M144.26,18.44h6.4V12h-6.4Zm2-4.4h2.4v2.4h-2.4Z"/><path class="cls-1" d="M153.34,18.44h6.4V12h-6.4Zm2-4.4h2.4v2.4h-2.4Z"/><path class="cls-1" d="M144.26,52.44h6.4V46h-6.4Zm2-4.4h2.4v2.4h-2.4Z"/><path class="cls-1" d="M153.34,52.44h6.4V46h-6.4Zm2-4.4h2.4v2.4h-2.4Z"/></g></g></svg>