<svg xmlns="http://www.w3.org/2000/svg" viewBox="0 0 58.83 59.59"><defs><style>.cls-1{fill:#30302f;}</style></defs><title>What_Industry</title><g id="Layer_2" data-name="Layer 2"><g id="Layer_1-2" data-name="Layer 1"><path class="cls-1" d="M51.8,57.59,49.87,5.83h2V0H39.1V5.83h2l-.76,20-3.62-6.54H12.25l-6,10.87H2.06v5.65H5.84V57.59H0v2H58.83v-2ZM43.1,45.75h6.25l.07,1.87H43.1Zm-2-41.92V2h8.73V3.83H41.1Zm2,2h4.8l1.41,37.92H43.1V35.84h3.78V30.19H42.69l-.51-.93ZM13.43,21.32H35.51l4.9,8.87H8.53ZM4.06,33.84V32.19H44.88v1.65H4.06ZM20.69,57.59V44.83h7.67V57.59Zm9.67,0V42.83H18.69V57.59H7.84V35.84H41.1V57.59Zm12.74-8h6.4l.3,8H43.1Z"/><rect class="cls-1" x="10.61" y="38.58" width="6" height="2"/><rect class="cls-1" x="10.61" y="43.75" width="6" height="2"/><rect class="cls-1" x="32.44" y="38.58" width="6" height="2"/><rect class="cls-1" x="32.44" y="43.75" width="6" height="2"/></g></g></svg>