<svg xmlns="http://www.w3.org/2000/svg" xmlns:xlink="http://www.w3.org/1999/xlink" viewBox="0 0 172.78 48.76"><defs><style>.cls-1{isolation:isolate;}.cls-2{fill:#2f3c47;}.cls-3{fill:#2f3c47;}.cls-4{fill:url(#linear-gradient);}.cls-5{fill:#e5e6e6;opacity:0.8;mix-blend-mode:multiply;}.cls-6{fill:url(#linear-gradient-2);}</style><linearGradient id="linear-gradient" x1="40.63" y1="45.94" x2="24.05" y2="3.01" gradientUnits="userSpaceOnUse"><stop offset="0" stop-color="#808184"/><stop offset="0.01" stop-color="#838487"/><stop offset="0.18" stop-color="#a1a2a4"/><stop offset="0.36" stop-color="#b9b9ba"/><stop offset="0.54" stop-color="#cacaca"/><stop offset="0.75" stop-color="#d4d4d4"/><stop offset="1" stop-color="#d7d7d7"/></linearGradient><linearGradient id="linear-gradient-2" x1="7.54" y1="51.56" x2="21.64" y2="14.45" gradientUnits="userSpaceOnUse"><stop offset="0" stop-color="#ab1f24"/><stop offset="0.08" stop-color="#b61f24"/><stop offset="0.27" stop-color="#ce1e24"/><stop offset="0.48" stop-color="#df1e24"/><stop offset="0.71" stop-color="#e91e24"/><stop offset="1" stop-color="#ec1e24"/></linearGradient></defs><title>Logo_Header</title><g class="cls-1"><g id="Layer_2" data-name="Layer 2"><g id="Layer_1-2" data-name="Layer 1"><path class="cls-2" d="M52.32,32.5V25.82h.78V28.6h0a2.14,2.14,0,0,1,1.73-.85c1.31,0,2,.94,2,2.38,0,1.7-.87,2.49-2,2.49a2,2,0,0,1-1.77-.91h0L53,32.5Zm.78-1.41a1.9,1.9,0,0,0,1.61.91c.73,0,1.35-.55,1.35-1.86,0-1-.39-1.78-1.4-1.78a1.89,1.89,0,0,0-1.56.89Z"/><path class="cls-2" d="M59.45,32.5l-2-4.63h.77l1.1,2.62.52,1.32h0l.55-1.47,1-2.47h.8l-2.44,5.71c-.33.79-.64,1.24-1.41,1.24a2,2,0,0,1-.77-.17V34a1.59,1.59,0,0,0,.72.2c.4,0,.6-.24.8-.77Z"/><path class="cls-3" d="M65.23,32.08a5.28,5.28,0,0,0,2.71.74c.76,0,1.3-.15,1.3-.75,0-1.43-3.87-1.24-3.87-3.93,0-1.56,1.38-2.3,3.09-2.3a5.35,5.35,0,0,1,2.38.46V28a4.9,4.9,0,0,0-2.23-.56c-.68,0-1.15.21-1.15.68,0,1.28,3.89,1.23,3.89,4,0,1.6-1.55,2.32-3.26,2.32a6.12,6.12,0,0,1-2.86-.64Z"/><path class="cls-3" d="M79.77,33.83a5.22,5.22,0,0,1-2.68.59c-2.52,0-4.73-1.38-4.73-4.33,0-2.75,2.2-4.27,4.77-4.27a6.31,6.31,0,0,1,2.54.46v1.78a4.12,4.12,0,0,0-2.35-.64,2.5,2.5,0,0,0-2.76,2.67,2.61,2.61,0,0,0,2.85,2.73,3.88,3.88,0,0,0,2.36-.74Z"/><path class="cls-3" d="M86.89,30.12h2V33.7a8.35,8.35,0,0,1-3.42.72c-2.65,0-4.83-1.39-4.83-4.17s2.29-4.43,5.19-4.43a6.84,6.84,0,0,1,2.76.48v1.75a6.07,6.07,0,0,0-2.66-.63c-1.77,0-3.1.77-3.1,2.76,0,1.75,1.15,2.61,2.85,2.61a2.85,2.85,0,0,0,1.23-.2Z"/><path class="cls-2" d="M74.83,21.16h-.11a3.24,3.24,0,0,1-1.18,1.34,3,3,0,0,1-1.62.45A3.3,3.3,0,0,1,69,21.34a8.92,8.92,0,0,1-1-4.83A8.87,8.87,0,0,1,69,11.68a3.17,3.17,0,0,1,2.76-1.62,3.33,3.33,0,0,1,1.68.42,2.5,2.5,0,0,1,1.07,1.14h.13V5.74h2.8V22.67H75.11ZM71.34,13.5a5.94,5.94,0,0,0-.44,2.57v.87a6,6,0,0,0,.44,2.6,1.48,1.48,0,0,0,1.42.86,1.51,1.51,0,0,0,1.44-.86,5.86,5.86,0,0,0,.45-2.6V16.1a5.87,5.87,0,0,0-.45-2.59,1.5,1.5,0,0,0-1.44-.87A1.46,1.46,0,0,0,71.34,13.5Z"/><path class="cls-2" d="M86.56,21.16h-.1a3.32,3.32,0,0,1-1.18,1.34,3,3,0,0,1-1.62.45,3.31,3.31,0,0,1-2.93-1.61,9,9,0,0,1-1-4.83,9,9,0,0,1,1-4.83,3.2,3.2,0,0,1,2.77-1.62,3.38,3.38,0,0,1,1.68.42,2.5,2.5,0,0,1,1.07,1.14h.12V5.74h2.8V22.67H86.84ZM83.07,13.5a6.11,6.11,0,0,0-.43,2.57v.87a6.21,6.21,0,0,0,.43,2.6,1.49,1.49,0,0,0,1.43.86,1.52,1.52,0,0,0,1.44-.86,5.88,5.88,0,0,0,.44-2.6V16.1a5.89,5.89,0,0,0-.44-2.59,1.51,1.51,0,0,0-1.44-.87A1.48,1.48,0,0,0,83.07,13.5Z"/><path class="cls-2" d="M113.1,11.64a8.71,8.71,0,0,1,1.1,4.89v.69H108a6.21,6.21,0,0,0,.44,2.58,1.48,1.48,0,0,0,1.44.86A1.33,1.33,0,0,0,111,20a3,3,0,0,0,.42-1.72h2.77A4.68,4.68,0,0,1,113,21.78,4.33,4.33,0,0,1,109.85,23Q105,23,105,16.53t4.74-6.47A3.83,3.83,0,0,1,113.1,11.64Zm-4.64,1.43a4.51,4.51,0,0,0-.47,2.11h3.29a4.57,4.57,0,0,0-.39-2.1,1.21,1.21,0,0,0-1.14-.72A1.38,1.38,0,0,0,108.46,13.07Z"/><path class="cls-2" d="M124.53,11a4.39,4.39,0,0,1,.87,3v8.63h-2.8V14.8a2.59,2.59,0,0,0-.42-1.65,1.47,1.47,0,0,0-1.2-.51,1.67,1.67,0,0,0-1.37.7,2.79,2.79,0,0,0-.54,1.77v7.56h-2.8V10.34h2.31l.31,1.53H119a4.45,4.45,0,0,1,1.32-1.31,3.29,3.29,0,0,1,1.82-.5A3.07,3.07,0,0,1,124.53,11Z"/><path class="cls-2" d="M132.74,12.71H131v6.85a1.05,1.05,0,0,0,.26.75,1,1,0,0,0,.74.27h.79v2.09a7.68,7.68,0,0,1-.81.19,4.94,4.94,0,0,1-.87.09,2.55,2.55,0,0,1-2.23-.95,3.92,3.92,0,0,1-.68-2.36V12.71h-1.24V10.34h1.24l.47-3.71H131v3.71h1.79Z"/><path class="cls-2" d="M140.91,21.16h-.13a4.39,4.39,0,0,1-1.32,1.29,3.35,3.35,0,0,1-1.81.5,3.07,3.07,0,0,1-2.39-.95,4.34,4.34,0,0,1-.87-3V10.34h2.8v7.87a2.72,2.72,0,0,0,.41,1.68,1.47,1.47,0,0,0,1.22.51,1.65,1.65,0,0,0,1.36-.7,2.69,2.69,0,0,0,.55-1.72V10.34h2.8V22.67h-2.34Z"/><path class="cls-2" d="M151.83,10.14l.38.1V13h-1a2.18,2.18,0,0,0-1.65.66,3.07,3.07,0,0,0-.64,2.19v6.85h-2.8V10.34h2.31l.34,1.81h.15a4.43,4.43,0,0,1,.79-1.5,1.62,1.62,0,0,1,1.32-.59A3.37,3.37,0,0,1,151.83,10.14Z"/><path class="cls-2" d="M161.09,11.64a8.71,8.71,0,0,1,1.1,4.89v.69H156a6.35,6.35,0,0,0,.45,2.58,1.48,1.48,0,0,0,1.44.86A1.33,1.33,0,0,0,159,20a3,3,0,0,0,.42-1.72h2.77A4.68,4.68,0,0,1,161,21.78,4.33,4.33,0,0,1,157.84,23Q153,23,153,16.53t4.74-6.47A3.83,3.83,0,0,1,161.09,11.64Zm-4.64,1.43a4.51,4.51,0,0,0-.47,2.11h3.28a4.58,4.58,0,0,0-.38-2.1,1.21,1.21,0,0,0-1.14-.72A1.38,1.38,0,0,0,156.45,13.07Z"/><path class="cls-2" d="M171.31,11a2.94,2.94,0,0,1,1.17,2.46l0,.53H169.6v-.05a1.77,1.77,0,0,0-.38-1.16,1.28,1.28,0,0,0-1-.39,1.58,1.58,0,0,0-1.06.33,1.1,1.1,0,0,0-.4.89,1,1,0,0,0,.54.95,7.71,7.71,0,0,0,1.68.6,12.77,12.77,0,0,1,1.93.64,3.18,3.18,0,0,1,1.32,1.09,3.57,3.57,0,0,1,.54,2.09c0,2.66-1.52,4-4.58,4a4.74,4.74,0,0,1-3.28-1.07,3.62,3.62,0,0,1-1.2-2.83l0-.3h2.87v.17a1.75,1.75,0,0,0,.51,1.32,1.71,1.71,0,0,0,1.17.42,2.07,2.07,0,0,0,1.15-.32,1.12,1.12,0,0,0,.48-1,1.16,1.16,0,0,0-.57-1.09,8.71,8.71,0,0,0-1.8-.69,11.24,11.24,0,0,1-1.88-.65,3.21,3.21,0,0,1-1.26-1.07,3.35,3.35,0,0,1-.52-2A3.38,3.38,0,0,1,165.13,11a5,5,0,0,1,3.17-1A4.81,4.81,0,0,1,171.31,11Z"/><polygon class="cls-4" points="30.81 43.02 48.02 43.02 31.59 0 14.38 0 30.81 43.02"/><polygon class="cls-5" points="43.43 43.02 31.38 11.47 18.76 11.47 30.81 43.02 43.43 43.02"/><polygon class="cls-6" points="17.21 48.76 0 48.76 14.17 11.47 31.38 11.47 17.21 48.76"/><polygon class="cls-2" points="58.29 6.63 64.41 22.67 66.98 22.67 60.86 6.63 58.29 6.63"/><polygon class="cls-2" points="58.98 11.95 54.89 22.67 52.32 22.67 57.7 8.59 58.98 11.95"/><polygon class="cls-2" points="60.99 17.21 55.65 17.21 55.65 19.23 61.76 19.23 60.99 17.21"/><polygon class="cls-2" points="100.44 22.67 94.32 6.63 91.75 6.63 97.88 22.67 100.44 22.67"/><polygon class="cls-2" points="99.31 16.17 102.95 6.63 105.52 6.63 100.59 19.54 99.31 16.17"/></g></g></g></svg>