<svg xmlns="http://www.w3.org/2000/svg" id="Logo_Hearder" viewBox="0 0 150 42.334">
    <defs>
        <style>
            .cls-1,.cls-2{fill:#fff}.cls-2{opacity:.8}
        </style>
    </defs>
    <g id="Group_106" data-name="Group 106" transform="translate(45.378 23.93)">
        <g id="Group_104" data-name="Group 104" transform="translate(11.635)">
            <path id="Path_12" d="M294.019 129.628a5.226 5.226 0 0 0 2.657.718c.756 0 1.28-.136 1.28-.737 0-1.4-3.8-1.222-3.8-3.859 0-1.532 1.357-2.25 3.025-2.25a5.388 5.388 0 0 1 2.327.446v1.648a4.877 4.877 0 0 0-2.191-.543c-.679 0-1.125.213-1.125.679 0 1.26 3.82 1.2 3.82 3.9 0 1.571-1.532 2.288-3.2 2.288A6.214 6.214 0 0 1 294 131.3z" class="cls-1" data-name="Path 12" transform="translate(-294 -123.481)"/>
            <path id="Path_13" d="M337.572 131.273a5 5 0 0 1-2.618.582c-2.482 0-4.654-1.357-4.654-4.247 0-2.7 2.153-4.208 4.693-4.208a5.979 5.979 0 0 1 2.5.465v1.745a4.021 4.021 0 0 0-2.308-.621 2.462 2.462 0 0 0-2.715 2.618 2.561 2.561 0 0 0 2.812 2.676 3.8 3.8 0 0 0 2.308-.718z" class="cls-1" data-name="Path 13" transform="translate(-323.261 -123.4)"/>
            <path id="Path_14" d="M378.247 127.628h1.939v3.51a8.228 8.228 0 0 1-3.355.718c-2.6 0-4.732-1.357-4.732-4.092 0-2.831 2.25-4.363 5.1-4.363a6.983 6.983 0 0 1 2.715.465v1.726a6.058 6.058 0 0 0-2.618-.621c-1.745 0-3.045.756-3.045 2.715 0 1.726 1.125 2.56 2.793 2.56a2.936 2.936 0 0 0 1.2-.194z" class="cls-1" data-name="Path 14" transform="translate(-356.955 -123.4)"/>
        </g>
        <g id="Group_105" data-name="Group 105" transform="translate(0 .31)">
            <path id="Path_15" d="M234 131.031V125h.7v2.521h.019a1.928 1.928 0 0 1 1.551-.776c1.183 0 1.8.853 1.8 2.153 0 1.532-.8 2.25-1.823 2.25a1.8 1.8 0 0 1-1.59-.834h-.019l-.078.718zm.717-1.26a1.7 1.7 0 0 0 1.454.834c.659 0 1.222-.5 1.222-1.687 0-.892-.349-1.61-1.26-1.61a1.76 1.76 0 0 0-1.416.8z" class="cls-1" data-name="Path 15" transform="translate(-234 -125)"/>
            <path id="Path_16" d="M258.442 138.608l-1.842-4.189h.7l.989 2.366.465 1.183h.019l.485-1.338.892-2.23h.718l-2.211 5.158c-.291.718-.582 1.125-1.28 1.125a1.691 1.691 0 0 1-.7-.155v-.562a1.33 1.33 0 0 0 .659.194c.368 0 .543-.233.718-.7z" class="cls-1" data-name="Path 16" transform="translate(-252.217 -132.577)"/>
        </g>
    </g>
    <g id="Group_112" data-name="Group 112">
        <g id="Group_111" data-name="Group 111">
            <g id="Group_110" data-name="Group 110">
                <g id="Group_109" data-name="Group 109">
                    <path id="Path_17" d="M310.073 39.161h-.1a2.763 2.763 0 0 1-1.028 1.164 2.7 2.7 0 0 1-1.4.388 2.866 2.866 0 0 1-2.54-1.4 7.806 7.806 0 0 1-.911-4.189 7.806 7.806 0 0 1 .911-4.189 2.762 2.762 0 0 1 2.4-1.4 2.8 2.8 0 0 1 1.454.368 2.181 2.181 0 0 1 .931.989h.116V25.8h2.424v14.7h-2.036zm-3.025-6.652a5.151 5.151 0 0 0-.368 2.23v.761a5.191 5.191 0 0 0 .368 2.25 1.4 1.4 0 0 0 2.482 0 5.208 5.208 0 0 0 .388-2.25v-.737a5.268 5.268 0 0 0-.388-2.25 1.3 1.3 0 0 0-1.241-.756 1.344 1.344 0 0 0-1.241.753z" class="cls-1" data-name="Path 17" transform="translate(-245.128 -20.797)"/>
                    <path id="Path_18" d="M362.673 39.161h-.1a2.763 2.763 0 0 1-1.028 1.164 2.7 2.7 0 0 1-1.4.388 2.866 2.866 0 0 1-2.54-1.4 7.807 7.807 0 0 1-.911-4.189 7.807 7.807 0 0 1 .911-4.189 2.763 2.763 0 0 1 2.4-1.4 2.8 2.8 0 0 1 1.454.368 2.181 2.181 0 0 1 .931.989h.116V25.8h2.424v14.7h-2.036zm-3.045-6.652a5.151 5.151 0 0 0-.368 2.23v.761a5.191 5.191 0 0 0 .368 2.25 1.4 1.4 0 0 0 2.482 0 5.208 5.208 0 0 0 .388-2.25v-.737a5.268 5.268 0 0 0-.388-2.25 1.3 1.3 0 0 0-1.241-.756 1.364 1.364 0 0 0-1.241.753z" class="cls-1" data-name="Path 18" transform="translate(-287.527 -20.797)"/>
                    <path id="Path_19" d="M477.02 46.457a7.466 7.466 0 0 1 .97 4.247v.6h-5.41a5.451 5.451 0 0 0 .388 2.25 1.278 1.278 0 0 0 1.241.737 1.15 1.15 0 0 0 1.008-.543 2.58 2.58 0 0 0 .368-1.493h2.4a4.018 4.018 0 0 1-1.047 3.006 3.75 3.75 0 0 1-2.734 1.008c-2.792 0-4.208-1.862-4.208-5.566 0-3.743 1.377-5.6 4.111-5.6a3.31 3.31 0 0 1 2.913 1.354zm-4.014 1.243a3.755 3.755 0 0 0-.407 1.842h2.851a4.134 4.134 0 0 0-.33-1.823 1.045 1.045 0 0 0-.989-.64 1.2 1.2 0 0 0-1.125.621z" class="cls-1" data-name="Path 19" transform="translate(-378.856 -36.354)"/>
                    <path id="Path_20" d="M527.575 45.673a3.837 3.837 0 0 1 .756 2.618v7.485h-2.424V48.95a2.2 2.2 0 0 0-.369-1.435 1.319 1.319 0 0 0-1.047-.446 1.435 1.435 0 0 0-1.183.6 2.451 2.451 0 0 0-.485 1.532v6.555H520.4v-10.7h2.017l.271 1.319h.116a4.018 4.018 0 0 1 1.144-1.144 2.8 2.8 0 0 1 1.571-.427 2.957 2.957 0 0 1 2.056.869z" class="cls-1" data-name="Path 20" transform="translate(-419.482 -36.112)"/>
                    <path id="Path_21" d="M572.981 35.055h-1.551v5.953a1 1 0 0 0 .213.659.865.865 0 0 0 .64.233h.679v1.8a6.041 6.041 0 0 1-.7.175 3.84 3.84 0 0 1-.756.078 2.234 2.234 0 0 1-1.939-.814 3.436 3.436 0 0 1-.582-2.056v-6.008H567.9v-2.056h1.086l.407-3.219h2.036v3.219h1.551z" class="cls-1" data-name="Path 21" transform="translate(-457.771 -24.021)"/>
                    <path id="Path_22" d="M607.163 55.686h-.116a3.948 3.948 0 0 1-1.144 1.125 2.9 2.9 0 0 1-1.571.427 2.674 2.674 0 0 1-2.075-.814 3.793 3.793 0 0 1-.756-2.637V46.3h2.424v6.826a2.355 2.355 0 0 0 .349 1.454 1.28 1.28 0 0 0 1.067.446 1.435 1.435 0 0 0 1.183-.6 2.4 2.4 0 0 0 .465-1.493V46.3h2.424V57h-2.036z" class="cls-1" data-name="Path 22" transform="translate(-484.855 -37.321)"/>
                    <path id="Path_23" d="M659.045 45.207a1.824 1.824 0 0 1 .33.1v2.363h-.853a1.9 1.9 0 0 0-1.435.582 2.68 2.68 0 0 0-.562 1.9v5.953H654.1V45.4h2.017l.291 1.571h.136a4.091 4.091 0 0 1 .679-1.3 1.415 1.415 0 0 1 1.144-.5 2.407 2.407 0 0 1 .678.036z" class="cls-1" data-name="Path 23" transform="translate(-527.255 -36.403)"/>
                    <path id="Path_24" d="M691.82 46.457a7.466 7.466 0 0 1 .97 4.247v.6h-5.41a5.45 5.45 0 0 0 .388 2.25 1.3 1.3 0 0 0 1.241.737 1.15 1.15 0 0 0 1.008-.543 2.579 2.579 0 0 0 .369-1.493h2.4a4.018 4.018 0 0 1-1.047 3.006 3.75 3.75 0 0 1-2.734 1.008c-2.792 0-4.208-1.862-4.208-5.566 0-3.743 1.377-5.6 4.111-5.6a3.309 3.309 0 0 1 2.912 1.354zm-4.014 1.243a3.753 3.753 0 0 0-.407 1.842h2.851a4.134 4.134 0 0 0-.33-1.823 1.045 1.045 0 0 0-.989-.64 1.2 1.2 0 0 0-1.125.621z" class="cls-1" data-name="Path 24" transform="translate(-552.001 -36.354)"/>
                    <path id="Path_25" d="M739.474 45.952a2.551 2.551 0 0 1 1.008 2.133l-.019.465h-2.482v-.039a1.53 1.53 0 0 0-.33-1.008 1.083 1.083 0 0 0-.853-.349 1.319 1.319 0 0 0-.911.291.95.95 0 0 0-.349.776.881.881 0 0 0 .465.834 6.586 6.586 0 0 0 1.454.524 11.387 11.387 0 0 1 1.687.562 2.794 2.794 0 0 1 1.144.95 3.106 3.106 0 0 1 .485 1.8c0 2.308-1.319 3.471-3.975 3.471a4.137 4.137 0 0 1-2.851-.931 3.113 3.113 0 0 1-1.047-2.443l.019-.271h2.5v.155a1.484 1.484 0 0 0 .446 1.144 1.44 1.44 0 0 0 1.008.368 1.794 1.794 0 0 0 .989-.271 1.128 1.128 0 0 0-.078-1.823 7.84 7.84 0 0 0-1.551-.6 10.43 10.43 0 0 1-1.629-.562 2.622 2.622 0 0 1-1.086-.931 2.85 2.85 0 0 1-.446-1.726 2.9 2.9 0 0 1 1.067-2.424 4.322 4.322 0 0 1 2.754-.853 4 4 0 0 1 2.581.758z" class="cls-1" data-name="Path 25" transform="translate(-590.773 -36.43)"/>
                    <path id="Path_26" d="M78.653 37.35h14.933L79.332 0H64.4z" class="cls-1" data-name="Path 26" transform="translate(-51.911)"/>
                    <path id="Path_27" d="M105.409 78.782L94.937 51.4H84l10.452 27.382z" class="cls-2" data-name="Path 27" transform="translate(-67.71 -41.432)"/>
                    <path id="Path_28" d="M14.932 83.766H0L12.295 51.4h14.932z" class="cls-1" data-name="Path 28" transform="translate(0 -41.432)"/>
                    <g id="Group_107" data-name="Group 107" transform="translate(45.417 5.76)">
                        <path id="Path_29" d="M260.9 29.7l5.314 13.924h2.23L263.13 29.7z" class="cls-1" data-name="Path 29" transform="translate(-255.722 -29.7)"/>
                        <path id="Path_30" d="M242.384 47.65l-.659-1.765h-3.491l1.745-4.557-1.125-2.928-4.654 12.237h2.23l1.144-2.986z" class="cls-1" data-name="Path 30" transform="translate(-234.2 -36.713)"/>
                    </g>
                    <g id="Group_108" data-name="Group 108" transform="translate(79.644 5.76)">
                        <path id="Path_31" d="M418.244 43.624L412.93 29.7h-2.23l5.313 13.924z" class="cls-1" data-name="Path 31" transform="translate(-410.7 -29.7)"/>
                        <path id="Path_32" d="M444.5 37.981l3.161-8.281h2.23l-4.286 11.209z" class="cls-1" data-name="Path 32" transform="translate(-437.945 -29.7)"/>
                    </g>
                </g>
            </g>
        </g>
    </g>
</svg>
