<svg xmlns="http://www.w3.org/2000/svg" viewBox="0 0 11.54 74.5"><defs><style>.cls-1{fill:#221f1f;}</style></defs><title>MeetMeOn</title><g id="Layer_2" data-name="Layer 2"><g id="Layer_1-2" data-name="Layer 1"><path class="cls-1" d="M11.34,66.71H3.1l-1-.06-.76-.05v.05l.47.11.56.12c.26.05.5.11.72.17l8.24,2.27v1.27L3.1,72.88c-.27.07-.68.16-1.23.25l-.52.09v.07l.78-.05,1,0h8.24V74.5H0V72.29l7.43-2A10.82,10.82,0,0,1,8.83,70c.58-.08,1-.13,1.16-.14v0c-.19,0-.59-.06-1.18-.13a8.5,8.5,0,0,1-1.38-.25L0,67.46V65.25H11.34Z"/><path class="cls-1" d="M3.4,57.54a5.51,5.51,0,0,1,3.13-.7H7.4v4.72a4.2,4.2,0,0,0,2.22-.48,1.56,1.56,0,0,0,.71-1.43,1.25,1.25,0,0,0-.53-1,2.25,2.25,0,0,0-1.41-.41V56.84a3.22,3.22,0,0,1,2.29.79,2.65,2.65,0,0,1,.86,2.06,2.94,2.94,0,0,1-1.08,2.49A5.74,5.74,0,0,1,7,63a5.89,5.89,0,0,1-3.45-.81,2.83,2.83,0,0,1-1.12-2.47A2.51,2.51,0,0,1,3.4,57.54ZM4.28,61a3.89,3.89,0,0,0,1.89.51V58.26c-1.68,0-2.52.49-2.52,1.46A1.47,1.47,0,0,0,4.28,61Z"/><path class="cls-1" d="M3.4,49.46a5.51,5.51,0,0,1,3.13-.7H7.4v4.72A4.3,4.3,0,0,0,9.62,53a1.57,1.57,0,0,0,.71-1.43,1.25,1.25,0,0,0-.53-1,2.25,2.25,0,0,0-1.41-.41V48.76a3.26,3.26,0,0,1,2.29.78,2.68,2.68,0,0,1,.86,2.06,2.94,2.94,0,0,1-1.08,2.5A5.81,5.81,0,0,1,7,54.92a5.89,5.89,0,0,1-3.45-.81,2.83,2.83,0,0,1-1.12-2.47A2.51,2.51,0,0,1,3.4,49.46ZM4.28,53a3.89,3.89,0,0,0,1.89.51V50.18c-1.68,0-2.52.49-2.52,1.46A1.48,1.48,0,0,0,4.28,53Z"/><path class="cls-1" d="M3.85,44v1.15H9.54a.8.8,0,0,0,.58-.2.74.74,0,0,0,.21-.57V44h.94a1.24,1.24,0,0,1,.17.43,2.48,2.48,0,0,1,.06.54,1.31,1.31,0,0,1-.57,1.18,2.66,2.66,0,0,1-1.43.37H3.85v.75H2.63v-.75L.22,46.24V45.18H2.63V44Z"/><path class="cls-1" d="M5.08,28.57h6.26v1.36H5.17A1.83,1.83,0,0,0,4,30.22a1,1,0,0,0-.34.83,1.25,1.25,0,0,0,.64,1.05A3.15,3.15,0,0,0,6,32.53h5.31v1.36H5.17a1.76,1.76,0,0,0-1.18.3,1.08,1.08,0,0,0-.34.84,1.27,1.27,0,0,0,.64,1.06A3.07,3.07,0,0,0,6,36.52h5.31v1.37H2.63v-1l1-.19v-.09a2.15,2.15,0,0,1-1.22-2,1.81,1.81,0,0,1,1.28-1.86,2.52,2.52,0,0,1-1-.91,2.37,2.37,0,0,1-.33-1.21C2.43,29.25,3.31,28.57,5.08,28.57Z"/><path class="cls-1" d="M3.4,20.9a5.42,5.42,0,0,1,3.13-.7H7.4v4.71a4.2,4.2,0,0,0,2.22-.48A1.56,1.56,0,0,0,10.33,23,1.25,1.25,0,0,0,9.8,22a2.25,2.25,0,0,0-1.41-.4V20.2a3.26,3.26,0,0,1,2.29.78A2.66,2.66,0,0,1,11.54,23a2.91,2.91,0,0,1-1.08,2.49A5.74,5.74,0,0,1,7,26.35a5.89,5.89,0,0,1-3.45-.81,2.83,2.83,0,0,1-1.12-2.46A2.5,2.5,0,0,1,3.4,20.9Zm.88,3.48a3.89,3.89,0,0,0,1.89.51V21.62c-1.68,0-2.52.48-2.52,1.46A1.46,1.46,0,0,0,4.28,24.38Z"/><path class="cls-1" d="M7,7.74q4.54,0,4.54,3.11T7,14q-4.57,0-4.57-3.14T7,7.74Zm-.32,4.82h.61c2,0,3-.57,3-1.71s-1-1.69-3-1.69H6.68a4.8,4.8,0,0,0-2.26.42,1.38,1.38,0,0,0-.77,1.27Q3.65,12.56,6.68,12.56Z"/><path class="cls-1" d="M3.05.56a3,3,0,0,1,2-.56h6.26V1.35H5.17A1.7,1.7,0,0,0,4,1.67a1.21,1.21,0,0,0-.34.92,1.4,1.4,0,0,0,.64,1.14A2.92,2.92,0,0,0,6,4.19h5.31V5.56H2.63v-1l1-.2V4.25A2.25,2.25,0,0,1,2.43,2.16,2,2,0,0,1,3.05.56Z"/></g></g></svg>