<svg xmlns="http://www.w3.org/2000/svg" viewBox="0 0 115.09 74.36"><defs><style>.cls-1{fill:#2f3c47;}</style></defs><title>Why_Partner</title><g id="Layer_2" data-name="Layer 2"><g id="Layer_1-2" data-name="Layer 1"><path class="cls-1" d="M24.88,24.53A12.27,12.27,0,1,0,12.61,12.27,12.27,12.27,0,0,0,24.88,24.53Zm0-21.73a9.47,9.47,0,1,1-9.47,9.47A9.47,9.47,0,0,1,24.88,2.8Z"/><path class="cls-1" d="M90.22,24.53A12.27,12.27,0,1,0,78,12.27,12.27,12.27,0,0,0,90.22,24.53Zm0-21.73a9.47,9.47,0,1,1-9.47,9.47A9.47,9.47,0,0,1,90.22,2.8Z"/><path class="cls-1" d="M90.22,29.63a24.81,24.81,0,0,0-12.38,3.31A13.31,13.31,0,0,0,62,33.57L58.2,37.21l-3.75-3.65A13.29,13.29,0,0,0,38,33.4,24.85,24.85,0,0,0,0,54.51v7.34H2.8V54.51A22.07,22.07,0,0,1,36,35.41a13.3,13.3,0,0,0,0,16.67l4,4.11A4.36,4.36,0,0,0,41,60.62a3.43,3.43,0,0,0,.38.34l.35.25a2.71,2.71,0,0,0,.38.22,4,4,0,0,0,.41.19,3.74,3.74,0,0,0,.46.14l.35.08.12,0,.3,0h.11a4.42,4.42,0,0,0,1.28,2.87l.37.32a2.7,2.7,0,0,0,.34.25,4.52,4.52,0,0,0,1.24.56l.49.1c.11,0,.22,0,.33,0H48c0,.2,0,.4.08.6l0,.19a4.72,4.72,0,0,0,.39,1,4.9,4.9,0,0,0,.81,1.06,2.92,2.92,0,0,0,.35.31l.34.25a4.44,4.44,0,0,0,.72.37l.07,0h.06a3,3,0,0,0,.39.12,2.43,2.43,0,0,0,.48.1l.32,0h.1v.1a1.13,1.13,0,0,0,0,.25l0,.18c0,.08,0,.15.06.27l0,.16.09.27,0,.14a1.61,1.61,0,0,0,.12.27l.06.13.15.27.07.12.2.27.07.09a2.45,2.45,0,0,0,.31.34,4.43,4.43,0,0,0,4.76,1,4.31,4.31,0,0,0,1.7.35,4.4,4.4,0,0,0,4.38-4.15,4.42,4.42,0,0,0,2.86-1.28,4.36,4.36,0,0,0,1.22-2.33,5,5,0,0,0,.06-.54A5.14,5.14,0,0,0,69,66a4.39,4.39,0,0,0,3.53-3.54,5,5,0,0,0,.07-.54,3.33,3.33,0,0,0,.54-.07,4.39,4.39,0,0,0,3.61-4.31,4.44,4.44,0,0,0-.22-1.35l4-4.16a13.3,13.3,0,0,0-.48-17.13,22.07,22.07,0,0,1,32.21,19.61v7.34h2.8V54.51A24.9,24.9,0,0,0,90.22,29.63ZM60.92,50.26a1.45,1.45,0,0,0,0,2.06l8.32,8.32a1.5,1.5,0,0,1,.38,1.4,1.43,1.43,0,0,1-.38.68,1.39,1.39,0,0,1-.69.38,1.46,1.46,0,0,1-1.32-.32L58.85,54.4a1.46,1.46,0,0,0-2.07,2.06l8.31,8.33a1.42,1.42,0,0,1,.38,1.39,1.39,1.39,0,0,1-.38.69,1.48,1.48,0,0,1-1.73.25,3.71,3.71,0,0,0-.19-1c0-.13-.09-.26-.14-.39L63,65.62a2.69,2.69,0,0,0-.16-.29l-.09-.16c-.06-.09-.12-.18-.22-.31l-.06-.09c-.11-.13-.21-.25-.33-.37a4.39,4.39,0,0,0-2.87-1.28V63a1.79,1.79,0,0,0,0-.23l0-.2a2.32,2.32,0,0,0-.06-.27L59,62l-.38.12.34-.23,0-.14c0-.06-.06-.12-.12-.27l-.07-.13a1.62,1.62,0,0,0-.1-.18l-.34.2.29-.29L58.53,61l-.18-.25-.09-.11a3.47,3.47,0,0,0-.3-.34L57.62,60l-.21-.15-.15-.11L57,59.52l-.1-.05-.29-.14-.1,0-.4-.14-.42-.1-.31,0-.13,0h-.14a.34.34,0,0,1,0-.1c0-.08,0-.16,0-.27l0-.16c0-.08,0-.16-.06-.26l0-.17c0-.08,0-.15-.09-.28l-.05-.13a2,2,0,0,0-.12-.28l-.06-.12-.16-.29-.06-.1-.19-.26-.08-.1a3.38,3.38,0,0,0-.31-.35l-.34-.31-.12-.08a2.27,2.27,0,0,0-.25-.18L53,55.45l-.24-.14-.15-.06-.25-.12-.15-.05L51.89,55l-.14,0a1.4,1.4,0,0,0-.28-.06l-.15,0-.28,0H51A4.39,4.39,0,0,0,49.67,52a3.8,3.8,0,0,0-.37-.33l-.12-.09-.28-.19-.15-.09-.33-.17L48.31,51a4.09,4.09,0,0,0-.46-.16A4.42,4.42,0,0,0,43.47,52l-1.82,1.81-2.9-3A10.24,10.24,0,0,1,53.22,36.35l2.92,2.91-3.63,3.63a3.8,3.8,0,0,0-.33.37,4.41,4.41,0,0,0-.75,4,4.37,4.37,0,0,0,7.28,1.79l3.63-3.63,11,11a1.46,1.46,0,0,1,.43,1,1.18,1.18,0,0,1,0,.35,1.39,1.39,0,0,1-.38.69h0a1.36,1.36,0,0,1-.67.36,1.49,1.49,0,0,1-1.41-.36L63,50.26A1.49,1.49,0,0,0,60.92,50.26ZM55.51,68.91,58,66.46a1.48,1.48,0,0,1,1-.41,1.43,1.43,0,0,1,1.47,1.45,1.47,1.47,0,0,1-.43,1L57.59,71a1.47,1.47,0,0,1-1.43.37,1.39,1.39,0,0,1-1-1A1.47,1.47,0,0,1,55.51,68.91Zm-1.7-12.2Zm-10.73-.23L45.53,54a1.52,1.52,0,0,1,2.08,0,1.46,1.46,0,0,1,.43,1,1.43,1.43,0,0,1-.43,1l-2.45,2.45a1.49,1.49,0,0,1-1.45.35,1.3,1.3,0,0,1-.63-.35,1.36,1.36,0,0,1-.37-.65,1.48,1.48,0,0,1-.06-.39A1.46,1.46,0,0,1,43.08,56.48Zm4.14,4.15,2.45-2.45A1.37,1.37,0,0,1,49.9,58a1.43,1.43,0,0,1,.28-.14l.23-.07.24,0h.13l.15,0,.11,0,.15,0,.1,0a1.2,1.2,0,0,1,.24.13,1.24,1.24,0,0,1,.22.18,1.47,1.47,0,0,1,.42,1.18,1.49,1.49,0,0,1-.42.9L49.3,62.71a1.54,1.54,0,0,1-1.45.35,1.44,1.44,0,0,1-.63-.35,1.46,1.46,0,0,1-.37-.65,1.61,1.61,0,0,1-.06-.39A1.43,1.43,0,0,1,47.22,60.63ZM56.65,47a1.52,1.52,0,0,1-2.08,0,1.46,1.46,0,0,1-.17-1.87l8.85-8.8A10.24,10.24,0,0,1,77.73,50.83l-2.94,3L62.34,41.34ZM51,66.2a1.16,1.16,0,0,1-.06-.39,1.46,1.46,0,0,1,.43-1l2.45-2.45a1.49,1.49,0,0,1,.27-.21l.24-.12.22-.06-.08-.4h0l.2.38h.12a1,1,0,0,1,.23,0h.12l.22.07a1.36,1.36,0,0,1,.54.33,1.47,1.47,0,0,1,0,2.08l-2.46,2.45a1,1,0,0,1-.22.18,1.5,1.5,0,0,1-.81.23,1.8,1.8,0,0,1-.48-.08l-.09,0a1.38,1.38,0,0,1-.47-.31A1.4,1.4,0,0,1,51,66.2Zm1.4,3.6Z"/></g></g></svg>