<svg xmlns="http://www.w3.org/2000/svg" viewBox="0 0 214.13 64.31"><defs><style>.cls-1{fill:#221f1f;}</style></defs><title>Why_Platform</title><g id="Layer_2" data-name="Layer 2"><g id="Layer_1-2" data-name="Layer 1"><path class="cls-1" d="M54.08,17,28.44,1a1.58,1.58,0,0,0-.81-.23,1.43,1.43,0,0,0-.8.23L1.1,16.83a1.51,1.51,0,0,0-.73,1.3L.29,47a1.54,1.54,0,0,0,.79,1.35L27.72,62.92a1.58,1.58,0,0,0,.73.18,1.61,1.61,0,0,0,.77-.2L54,48.51a1.54,1.54,0,0,0,.76-1.32l.08-28.91A1.53,1.53,0,0,0,54.08,17ZM27.63,2.3,52.54,17.82l-24,14L2.65,17.67ZM1.89,19,27.77,33.11l-.08,28.05L1.82,47ZM29.22,61.13l.08-28,24-13.94-.08,28Z"/><path class="cls-1" d="M28.45,63.39a1.83,1.83,0,0,1-.86-.22L1,48.64A1.82,1.82,0,0,1,0,47L.08,18.13a1.83,1.83,0,0,1,.86-1.55L26.68.75a1.85,1.85,0,0,1,1.91,0l25.64,16a1.82,1.82,0,0,1,.86,1.55L55,47.19a1.85,1.85,0,0,1-.9,1.57L29.37,63.14A1.77,1.77,0,0,1,28.45,63.39ZM27.63,1.06a1.22,1.22,0,0,0-.65.18L1.25,17.07a1.26,1.26,0,0,0-.6,1.06L.57,47a1.23,1.23,0,0,0,.65,1.09L27.86,62.66a1.26,1.26,0,0,0,1.22,0L53.82,48.26a1.23,1.23,0,0,0,.61-1.07l.08-28.91a1.2,1.2,0,0,0-.58-1.06l-25.64-16A1.28,1.28,0,0,0,27.63,1.06ZM28,61.64,1.53,47.21l.08-28.69L28.06,32.94ZM2.1,46.87l25.31,13.8.07-27.39L2.18,19.48ZM28.93,61.63,29,32.94,53.56,18.66l-.08,28.69Zm.66-28.36-.08,27.36L52.91,47,53,19.66Zm-1.06-1.16L28.39,32,2.07,17.69,27.63,2l.15.09L53.1,17.82ZM3.22,17.65l25.3,13.81L52,17.81,27.63,2.64Z"/><path class="cls-1" d="M20.46,39.87,8.94,33.48a.75.75,0,0,0-1.12.67l0,13.5a.75.75,0,0,0,.4.67l11.52,6.4a.74.74,0,0,0,.36.09.79.79,0,0,0,.39-.11.77.77,0,0,0,.37-.66l0-13.5A.75.75,0,0,0,20.46,39.87ZM19.3,52.77l-10-5.58,0-11.76,10,5.57Z"/><path class="cls-1" d="M20.06,55.09a1.11,1.11,0,0,1-.5-.12L8,48.58a1.06,1.06,0,0,1-.55-.93l0-13.5a1.06,1.06,0,0,1,1.55-.93l11.52,6.4a1,1,0,0,1,.55.92l0,13.51a1.08,1.08,0,0,1-.51.9A1.11,1.11,0,0,1,20.06,55.09ZM8.58,33.67a.51.51,0,0,0-.24.07.5.5,0,0,0-.24.41l0,13.5a.46.46,0,0,0,.25.42l11.52,6.4a.47.47,0,0,0,.46,0,.46.46,0,0,0,.24-.41l0-13.5a.47.47,0,0,0-.25-.42h0L8.8,33.73A.4.4,0,0,0,8.58,33.67Zm11,19.59L9,47.36l0-12.42,10.56,5.89ZM9.6,47,19,52.28l0-11.11L9.63,35.91Z"/><path class="cls-1" d="M40.16,39.44a.76.76,0,0,0-.77,0L32,43.72a.76.76,0,0,0-.38.66l0,8.6a.76.76,0,0,0,.38.66.75.75,0,0,0,.38.1.78.78,0,0,0,.39-.1l7.35-4.28a.76.76,0,0,0,.38-.66l0-8.6A.77.77,0,0,0,40.16,39.44ZM39,48.26l-5.83,3.39,0-6.83L39,41.43Z"/><path class="cls-1" d="M32.39,54A1.06,1.06,0,0,1,31.34,53l0-8.6a1.06,1.06,0,0,1,.53-.9l7.35-4.28a1.06,1.06,0,0,1,1.06,0h0a1,1,0,0,1,.52.91l0,8.6a1.07,1.07,0,0,1-.52.91l-7.36,4.28A1.1,1.1,0,0,1,32.39,54Zm7.38-14.41a.44.44,0,0,0-.24.07L32.18,44a.46.46,0,0,0-.24.41l0,8.6a.48.48,0,0,0,.72.41L40,49.11a.48.48,0,0,0,.24-.41l0-8.6a.46.46,0,0,0-.24-.41A.4.4,0,0,0,39.77,39.62Zm-6.9,12.53,0-7.5,6.4-3.72,0,7.49ZM33.46,45v6.17l5.25-3.06,0-6.16Z"/><path class="cls-1" d="M50.43,33.51a.79.79,0,0,0-.76,0l-7.36,4.28a.76.76,0,0,0-.38.66l0,8.6a.77.77,0,0,0,.39.67.83.83,0,0,0,.38.1.75.75,0,0,0,.38-.1l7.36-4.28a.76.76,0,0,0,.38-.66l0-8.6A.77.77,0,0,0,50.43,33.51Zm-1.17,8.82-5.82,3.39,0-6.82,5.82-3.39Z"/><path class="cls-1" d="M42.67,48.11a1,1,0,0,1-1.05-1.06l0-8.6a1,1,0,0,1,.53-.9l7.35-4.28a1.06,1.06,0,0,1,1,0h0a1.07,1.07,0,0,1,.52.92l0,8.6a1,1,0,0,1-.53.9L43.2,48A1,1,0,0,1,42.67,48.11ZM50.05,33.7a.5.5,0,0,0-.24.06L42.45,38a.49.49,0,0,0-.23.41l0,8.6a.49.49,0,0,0,.24.42.51.51,0,0,0,.48,0l7.36-4.28a.49.49,0,0,0,.23-.41l0-8.6a.49.49,0,0,0-.24-.42A.5.5,0,0,0,50.05,33.7Zm-6.9,12.52,0-7.49L49.57,35l0,7.49Zm.59-7.16v6.16l5.25-3V36Z"/><path class="cls-1" d="M132,43.89l.19-23.32a2.81,2.81,0,1,0-2.69-4.74l-20.44-12a2.61,2.61,0,0,0,.1-.69,2.82,2.82,0,0,0-5.64,0,2.54,2.54,0,0,0,.09.68L82.74,15.71A2.81,2.81,0,1,0,80,20.42l-.07,23.32a2.81,2.81,0,1,0,2.7,4.74l20.29,12a2.77,2.77,0,0,0-.1.71,2.82,2.82,0,0,0,5.64,0,2.61,2.61,0,0,0-.09-.69l20.86-11.93a2.76,2.76,0,0,0,2,.81,2.81,2.81,0,0,0,.8-5.51Zm-1.8-26.35a1.2,1.2,0,0,0,.05-.38,1.29,1.29,0,0,0,.3-.22,1.25,1.25,0,0,1,.9-.36,1.28,1.28,0,0,1,.33,2.52,1.54,1.54,0,0,0-.35.15,1.39,1.39,0,0,0-.35-.16,1.35,1.35,0,0,1-.46-.24,1.26,1.26,0,0,0-.32-.21,1.69,1.69,0,0,0-.07-.38,1.29,1.29,0,0,1-.08-.4A1.68,1.68,0,0,1,130.19,17.54Zm-1.48-.38a3.19,3.19,0,0,0-.1.7,2.85,2.85,0,0,0,.15.88l-22,12.1.29-25a2.84,2.84,0,0,0,1.21-.68ZM106.33,1.82a1.29,1.29,0,0,1,1.29,1.29,1.57,1.57,0,0,1-.05.32,1.28,1.28,0,0,0,0,.38,1.33,1.33,0,0,0-.3.23,1.32,1.32,0,0,1-.56.3,2.17,2.17,0,0,0-.35.15,1.39,1.39,0,0,0-.35-.16,1.31,1.31,0,0,1-.53-.3,2,2,0,0,0-.3-.23,1.65,1.65,0,0,0,0-.38,1.39,1.39,0,0,1,0-.32A1.28,1.28,0,0,1,106.33,1.82Zm-2,3.3a2.7,2.7,0,0,0,1.17.68l-.3,25L83.5,18.4a2.41,2.41,0,0,0,.09-.67,2.59,2.59,0,0,0-.09-.68ZM79.48,17.72a1.3,1.3,0,0,1,1.3-1.29,1.31,1.31,0,0,1,.89.38A1.54,1.54,0,0,0,82,17a1.74,1.74,0,0,0,0,.39,1.38,1.38,0,0,1,0,.31,1.24,1.24,0,0,1,0,.3,1.74,1.74,0,0,0,0,.39,2,2,0,0,0-.3.23,1.24,1.24,0,0,1-.55.31,1.09,1.09,0,0,0-.35.15,1.19,1.19,0,0,0-.35-.15A1.29,1.29,0,0,1,79.48,17.72Zm2.45,29.05a1.58,1.58,0,0,0-.05.38,1.29,1.29,0,0,0-.3.22,1.31,1.31,0,0,1-.89.36,1.3,1.3,0,0,1-1.29-1.3,1.28,1.28,0,0,1,.95-1.22,2.17,2.17,0,0,0,.35-.15,1.6,1.6,0,0,0,.35.15,1.4,1.4,0,0,1,.44.22,1.12,1.12,0,0,0,.33.2,1.72,1.72,0,0,0,.08.38,1.2,1.2,0,0,1,.08.43A1.15,1.15,0,0,1,81.93,46.77Zm.5-2.54a2.73,2.73,0,0,0-1-.49l.06-23.31a2.76,2.76,0,0,0,1.21-.69l21.67,12.4Zm1,2.92a2.69,2.69,0,0,0,.1-.7,2.77,2.77,0,0,0-.17-1l21.86-12-.3,25a2.8,2.8,0,0,0-1.2.67Zm22.23,15.34a1.3,1.3,0,0,1-1.29-1.3,1.68,1.68,0,0,1,.05-.32,1.58,1.58,0,0,0,0-.38,1.66,1.66,0,0,0,.3-.22,1.29,1.29,0,0,1,.56-.31,1.51,1.51,0,0,0,.35-.14A1.23,1.23,0,0,0,106,60a1.33,1.33,0,0,1,.53.31,1.7,1.7,0,0,0,.3.23,1.73,1.73,0,0,0,0,.38,1.38,1.38,0,0,1,0,.31A1.29,1.29,0,0,1,105.64,62.49Zm2-3.31a2.79,2.79,0,0,0-1.17-.67l.3-25L128.47,45.9a2.58,2.58,0,0,0,0,1.35Zm21.61-14.61-21.66-12.4L129.63,20a2.81,2.81,0,0,0,1,.54l-.19,23.31A2.85,2.85,0,0,0,129.22,44.57Zm2,3.3a1.3,1.3,0,0,1-.9-.37,1.54,1.54,0,0,0-.29-.23,1.73,1.73,0,0,0-.05-.38,1.5,1.5,0,0,1,0-.31,2.19,2.19,0,0,1,0-.31,1.26,1.26,0,0,0,0-.38,1.7,1.7,0,0,0,.3-.23,1.27,1.27,0,0,1,.57-.31,2.17,2.17,0,0,0,.35-.15,1.23,1.23,0,0,0,.35.15,1.29,1.29,0,0,1-.37,2.52Z"/><path class="cls-1" d="M105.63,64.31a3.13,3.13,0,0,1-3.1-3.12,2.34,2.34,0,0,1,.07-.57L82.66,48.83a3.05,3.05,0,0,1-2,.72,3.1,3.1,0,0,1-1-6l.07-22.9a3.1,3.1,0,0,1,1.07-6,3.05,3.05,0,0,1,2,.74L103.27,3.64a3.5,3.5,0,0,1,0-.54,3.11,3.11,0,1,1,6.21,0,2.72,2.72,0,0,1-.06.55l20.08,11.81a3.1,3.1,0,1,1,3,5.3l-.19,22.9a3.1,3.1,0,0,1-1.09,6,3.16,3.16,0,0,1-2-.74L108.7,60.67a3.5,3.5,0,0,1,0,.54A3.12,3.12,0,0,1,105.63,64.31Zm-23-16.19,20.67,12.23-.06.21a2.53,2.53,0,1,0,5,.65,2.4,2.4,0,0,0-.08-.62l0-.21.19-.11,21-12,.16.15a2.53,2.53,0,0,0,4.3-1.8,2.55,2.55,0,0,0-1.82-2.43l-.21-.06.19-23.75.21-.05a2.53,2.53,0,0,0-.66-5,2.5,2.5,0,0,0-1.75.71l-.16.15-.19-.11L108.71,4l.06-.21a2.51,2.51,0,0,0,.09-.63,2.54,2.54,0,1,0-5.07,0,2.37,2.37,0,0,0,.09.61l.05.21L82.7,16.07l-.16-.15a2.53,2.53,0,1,0-2.46,4.23l.2.06L80.22,44,80,44a2.53,2.53,0,0,0,.68,5,2.47,2.47,0,0,0,1.74-.7Zm23,14.66a1.55,1.55,0,0,1-1.52-2,1.1,1.1,0,0,0,0-.31v-.17l.14-.08a1.44,1.44,0,0,0,.25-.18,1.47,1.47,0,0,1,.67-.37,1.48,1.48,0,0,0,.29-.12l.14-.08.14.08a1.08,1.08,0,0,0,.29.13,1.44,1.44,0,0,1,.65.37,1.5,1.5,0,0,0,.25.19l.14.08v.17a1.1,1.1,0,0,0,0,.31,2,2,0,0,1,0,.38A1.58,1.58,0,0,1,105.64,62.78Zm-.91-2.13c0,.1,0,.2,0,.3a.91.91,0,0,0,0,.25,1,1,0,0,0,1,1,1,1,0,0,0,1-1,1.48,1.48,0,0,0,0-.24,1.6,1.6,0,0,1,0-.29l-.22-.19a1.06,1.06,0,0,0-.42-.23l-.27-.11a1.48,1.48,0,0,1-.27.1,1,1,0,0,0-.43.24A1.84,1.84,0,0,1,104.73,60.65Zm2.84-1.11-.16-.15a2.51,2.51,0,0,0-1-.61l-.21-.06L106.46,33,128.8,45.76l-.06.21a2.84,2.84,0,0,0-.08.6,2.5,2.5,0,0,0,.09.62l.05.21Zm-.84-1.24a3.35,3.35,0,0,1,.92.53l20.49-11.72a3.5,3.5,0,0,1,0-.54,3.15,3.15,0,0,1,0-.52L107,34Zm-3,1.22L83.08,47.29l0-.21a2.21,2.21,0,0,0,.1-.63,2.46,2.46,0,0,0-.16-.86L83,45.36,105.49,33l-.3,25.74-.21.06a2.45,2.45,0,0,0-1.08.6ZM83.74,47,103.67,58.8a3.24,3.24,0,0,1,1-.52L104.91,34,83.68,45.63a3,3,0,0,1,.12.82A2.81,2.81,0,0,1,83.74,47Zm47.45,1.15a1.58,1.58,0,0,1-1.1-.45.88.88,0,0,0-.24-.19l-.14-.09v-.16a1.06,1.06,0,0,0,0-.31,1.49,1.49,0,0,1,0-.39,2,2,0,0,1,0-.37,1.06,1.06,0,0,0,0-.31v-.17l.14-.08a1.12,1.12,0,0,0,.24-.19,1.6,1.6,0,0,1,.69-.38,1.78,1.78,0,0,0,.29-.12l.14-.08.14.08a1.08,1.08,0,0,0,.29.13,1.54,1.54,0,0,1,1.13,1.5A1.58,1.58,0,0,1,131.19,48.16Zm-.91-1,.22.18a1,1,0,0,0,.69.29,1,1,0,0,0,.29-1.95,1.36,1.36,0,0,1-.28-.11,1.08,1.08,0,0,1-.27.1,1.11,1.11,0,0,0-.44.24,1.18,1.18,0,0,1-.21.18c0,.1,0,.2-.05.3a.74.74,0,0,0,0,.48A2.93,2.93,0,0,1,130.28,47.11ZM80.69,48a1.57,1.57,0,0,1-.42-3.09,1.39,1.39,0,0,0,.28-.12l.15-.08.14.08a1.48,1.48,0,0,0,.29.12,1.59,1.59,0,0,1,.53.28,1.91,1.91,0,0,0,.27.16l.16.07v.17a1.09,1.09,0,0,0,.07.3,1.54,1.54,0,0,1,.1.53,1.68,1.68,0,0,1-.06.4h0a1.06,1.06,0,0,0,0,.31v.17L82,47.4a1.08,1.08,0,0,0-.24.18A1.61,1.61,0,0,1,80.69,48Zm0-2.64a1.48,1.48,0,0,1-.27.1,1,1,0,1,0,.95,1.68L81.6,47a2.93,2.93,0,0,1,.05-.29,1.08,1.08,0,0,0,0-.25.94.94,0,0,0-.07-.34,2.29,2.29,0,0,1-.08-.28,2,2,0,0,1-.24-.16.91.91,0,0,0-.34-.17A1.69,1.69,0,0,1,80.7,45.38Zm48.57-.46-.19-.11L107,32.16l22.69-12.49.15.13a2.68,2.68,0,0,0,.91.49l.21.06-.2,23.74-.2.06a2.58,2.58,0,0,0-1.11.62ZM108.14,32.17l21,12a3.09,3.09,0,0,1,1-.55l.19-22.89a3.23,3.23,0,0,1-.75-.41ZM82.4,44.58l-.14-.12a2.55,2.55,0,0,0-.87-.44L81.18,44l.07-23.75.21-.06a2.53,2.53,0,0,0,1.08-.62l.16-.15.19.11L105,32.14Zm-.64-1a3.09,3.09,0,0,1,.7.36l21.37-11.76-21-12a3,3,0,0,1-1,.55Zm24.72-12.2.3-25.73.21-.06a2.42,2.42,0,0,0,1.08-.61l.16-.15L129.05,17l-.06.21a2.58,2.58,0,0,0-.09.63,2.31,2.31,0,0,0,.14.79l.07.22ZM107.35,6l-.29,24.32L128.42,18.6a3.25,3.25,0,0,1-.09-.74,2.81,2.81,0,0,1,.06-.56L108.31,5.5A3.1,3.1,0,0,1,107.35,6Zm-1.84,25.3L83.17,18.54l0-.21a2.24,2.24,0,0,0,.09-.6,2.37,2.37,0,0,0-.09-.61l0-.21L104.4,4.76l.16.15a2.45,2.45,0,0,0,1,.61l.21.06ZM83.83,18.26,105,30.34,105.24,6a2.91,2.91,0,0,1-.92-.53L83.83,17.2a2.83,2.83,0,0,1,0,1.06Zm-3.06,1.18-.15-.09a1.18,1.18,0,0,0-.28-.12,1.56,1.56,0,0,1-1.15-1.51,1.59,1.59,0,0,1,1.59-1.57,1.54,1.54,0,0,1,1.09.45l.25.19.14.08V17a1.1,1.1,0,0,0,0,.31,2,2,0,0,1,0,.38,1.8,1.8,0,0,1,0,.37,1.12,1.12,0,0,0,0,.32v.16l-.14.09a1.44,1.44,0,0,0-.25.18,1.44,1.44,0,0,1-.67.38,1.48,1.48,0,0,0-.29.12Zm0-2.72a1,1,0,0,0-1,1,1,1,0,0,0,.73,1l.27.1.27-.1a1,1,0,0,0,.43-.24l.22-.18c0-.1,0-.2,0-.3a1.24,1.24,0,0,0,0-.23,1.48,1.48,0,0,0,0-.24c0-.1,0-.2,0-.3a1.24,1.24,0,0,1-.22-.18A1,1,0,0,0,80.78,16.72Zm50.64,2.86-.14-.09a1.48,1.48,0,0,0-.29-.12,1.45,1.45,0,0,1-.56-.3,1.45,1.45,0,0,0-.26-.17l-.15-.07,0-.17a1.06,1.06,0,0,0-.05-.31,1.14,1.14,0,0,1-.09-.49,1.23,1.23,0,0,1,.06-.39h0a1.55,1.55,0,0,0,0-.31V17l.14-.08a1.44,1.44,0,0,0,.25-.18,1.54,1.54,0,0,1,1.09-.44,1.57,1.57,0,0,1,.41,3.09,1,1,0,0,0-.29.11Zm-.86-1.12.24.17a1,1,0,0,0,.36.19l.27.1a1.69,1.69,0,0,1,.27-.1,1,1,0,0,0-.26-2,1,1,0,0,0-.7.28l-.22.19a1.6,1.6,0,0,1-.05.29.85.85,0,0,0,0,.24,1,1,0,0,0,.06.31C130.52,18.27,130.54,18.36,130.56,18.46ZM106.31,4.82l-.15-.09a1.18,1.18,0,0,0-.28-.12,1.66,1.66,0,0,1-.66-.38,1.08,1.08,0,0,0-.24-.18L104.84,4V3.8a1.06,1.06,0,0,0,0-.31,2.18,2.18,0,0,1,0-.39,1.58,1.58,0,0,1,3.16,0,2.33,2.33,0,0,1-.06.39,1.1,1.1,0,0,0,0,.31V4l-.14.08a1.44,1.44,0,0,0-.25.18,1.49,1.49,0,0,1-.67.38,1.48,1.48,0,0,0-.29.12Zm-.9-1.18a1.74,1.74,0,0,1,.22.18.93.93,0,0,0,.41.24,1.33,1.33,0,0,1,.28.1,1.69,1.69,0,0,1,.27-.1.94.94,0,0,0,.43-.23,1.24,1.24,0,0,1,.22-.18,1.35,1.35,0,0,1,.05-.29,1,1,0,0,0,0-.25,1,1,0,0,0-2,0,1.76,1.76,0,0,0,0,.25A2.93,2.93,0,0,1,105.41,3.64Z"/><path class="cls-1" d="M213.1,17.4,188.44,2.78a1.55,1.55,0,0,0-.78-.21,1.58,1.58,0,0,0-.73.18L160.21,17.23a1.53,1.53,0,0,0-.8,1.34l-.08,28.91a1.53,1.53,0,0,0,.8,1.35l26.64,14.53a1.64,1.64,0,0,0,.72.19,1.55,1.55,0,0,0,.78-.21L213,49a1.52,1.52,0,0,0,.76-1.32l.08-28.91A1.52,1.52,0,0,0,213.1,17.4ZM187.66,4.1l23.9,14.17-7,4.05L180.39,8Zm-.09,28.13L161.74,18.14l8.1-4.39,24.57,14.49Zm8.36-4.87L171.51,13l7.35-4.05L203.09,23.2Zm.83,1.37,7.14-4.15,0,10.29L196.73,39Zm-35.82-9.29,25.87,14.12-.08,28L160.86,47.49Zm27.32,42.13.08-28,6.89-4,0,10.81a.79.79,0,0,0,.38.67.86.86,0,0,0,.38.1.76.76,0,0,0,.39-.1L205,36a.78.78,0,0,0,.38-.66l0-11.71,6.88-4-.08,28Z"/><path class="cls-1" d="M187.49,63.83a1.83,1.83,0,0,1-.86-.22L160,49.08a1.81,1.81,0,0,1-1-1.6l.08-28.91a1.8,1.8,0,0,1,.95-1.59L186.79,2.5a1.84,1.84,0,0,1,1.79,0l24.66,14.62a1.81,1.81,0,0,1,.89,1.56l-.08,28.91a1.83,1.83,0,0,1-.9,1.57L188.41,63.59A1.86,1.86,0,0,1,187.49,63.83Zm.17-61a1.2,1.2,0,0,0-.59.15L160.35,17.48a1.24,1.24,0,0,0-.65,1.09l-.08,28.91a1.23,1.23,0,0,0,.64,1.1L186.9,63.11a1.26,1.26,0,0,0,1.22,0L212.86,48.7a1.24,1.24,0,0,0,.62-1.07l.08-28.91a1.23,1.23,0,0,0-.61-1.07L188.29,3A1.27,1.27,0,0,0,187.66,2.86ZM187,62.08,160.57,47.66l.08-28.7L187.1,33.39ZM161.15,47.32l25.3,13.8.07-27.39-25.3-13.81ZM188,62.07l.08-28.69L195.52,29l0,11.31a.49.49,0,0,0,.24.42.51.51,0,0,0,.48,0l8.67-5.05a.49.49,0,0,0,.23-.41l0-11.87,7.45-4.34-.08,28.69Zm.66-28.36-.08,27.36L212,47.46,212,20.1l-6.3,3.67,0,11.54a1,1,0,0,1-.53.9l-8.66,5a1.05,1.05,0,0,1-1.59-.91l0-10.31Zm7.82,5.81,0-11,7.71-4.49,0,11Zm.6-10.62,0,9.62,6.57-3.82,0-9.62Zm-9.48,3.66-.14-.08L161.14,18.14l8.71-4.72.14.08,25,14.75ZM162.34,18.14,187.56,31.9l6.28-3.66-24-14.16Zm33.58,9.56L170.93,13l7.93-4.37,24.8,14.62ZM172.09,13,195.93,27l6.59-3.83-23.67-14Zm32.51,9.68L179.8,8l7.86-4.26.14.08,24.33,14.42ZM181,8.05,204.6,22,211,18.27,187.65,4.43Z"/></g></g></svg>