<?xml version="1.0" encoding="utf-8"?>
<!-- Generator: Adobe Illustrator 22.1.0, SVG Export Plug-In . SVG Version: 6.00 Build 0)  -->
<svg version="1.1" id="Layer_1" xmlns="http://www.w3.org/2000/svg" xmlns:xlink="http://www.w3.org/1999/xlink" x="0px" y="0px"
	 viewBox="0 0 131.6 41.5" style="enable-background:new 0 0 131.6 41.5;" xml:space="preserve">
<style type="text/css">
	.st0{fill:#221F1F;}
</style>
<title>How_01Seed</title>
<g id="Layer_2_1_">
	<g id="Layer_1-2">
		<path class="st0" d="M41,41.5H3.8V0H41V41.5z M5.7,39.5H39V2H5.8L5.7,39.5z"/>
		<rect y="39.5" class="st0" width="44.8" height="2"/>
		<rect x="11.1" y="7.9" class="st0" width="4.4" height="4.4"/>
		<rect x="20.2" y="7.9" class="st0" width="4.4" height="4.4"/>
		<rect x="29.3" y="7.9" class="st0" width="4.4" height="4.4"/>
		<rect x="11.1" y="16.4" class="st0" width="4.4" height="4.4"/>
		<rect x="20.2" y="16.4" class="st0" width="4.4" height="4.4"/>
		<rect x="29.3" y="16.4" class="st0" width="4.4" height="4.4"/>
		<rect x="11.1" y="24.9" class="st0" width="4.4" height="4.4"/>
		<rect x="20.2" y="24.9" class="st0" width="4.4" height="4.4"/>
		<path class="st0" d="M87.3,41.5H50V0h37.3V41.5z M52,39.5h33.3V2H52V39.5z"/>
		<rect x="46.2" y="39.5" class="st0" width="44.8" height="2"/>
		<rect x="57.4" y="7.9" class="st0" width="4.4" height="4.4"/>
		<rect x="66.5" y="7.9" class="st0" width="4.4" height="4.4"/>
		<rect x="75.5" y="7.9" class="st0" width="4.4" height="4.4"/>
		<rect x="57.4" y="16.4" class="st0" width="4.4" height="4.4"/>
		<rect x="66.5" y="16.4" class="st0" width="4.4" height="4.4"/>
		<rect x="75.5" y="16.4" class="st0" width="4.4" height="4.4"/>
		<rect x="57.4" y="24.9" class="st0" width="4.4" height="4.4"/>
		<rect x="66.5" y="24.9" class="st0" width="4.4" height="4.4"/>
		<path class="st0" d="M127.9,41.5H90.6V0h37.3V41.5z M92.6,39.5h33.3V2H92.6V39.5z"/>
		<rect x="86.8" y="39.5" class="st0" width="44.8" height="2"/>
		<rect x="97.9" y="7.9" class="st0" width="4.4" height="4.4"/>
		<rect x="107" y="7.9" class="st0" width="4.4" height="4.4"/>
		<rect x="116.1" y="7.9" class="st0" width="4.4" height="4.4"/>
		<rect x="97.9" y="16.4" class="st0" width="4.4" height="4.4"/>
		<rect x="107" y="16.4" class="st0" width="4.4" height="4.4"/>
		<rect x="116.1" y="16.4" class="st0" width="4.4" height="4.4"/>
		<rect x="97.9" y="24.9" class="st0" width="4.4" height="4.4"/>
		<rect x="107" y="24.9" class="st0" width="4.4" height="4.4"/>
	</g>
</g>
</svg>
