<svg xmlns="http://www.w3.org/2000/svg" viewBox="0 0 131.64 41.51"><defs><style>.cls-1{fill:#221f1f;}</style></defs><title>How_01Seed</title><g id="Layer_2" data-name="Layer 2"><g id="Layer_1-2" data-name="Layer 1"><path class="cls-1" d="M41,41.51H3.78V0H41Zm-35.26-2H39V2H5.78Z"/><rect class="cls-1" y="39.51" width="44.82" height="2"/><rect class="cls-1" x="11.13" y="7.86" width="4.4" height="4.4"/><rect class="cls-1" x="20.21" y="7.86" width="4.4" height="4.4"/><rect class="cls-1" x="29.29" y="7.86" width="4.4" height="4.4"/><rect class="cls-1" x="11.13" y="16.36" width="4.4" height="4.4"/><rect class="cls-1" x="20.21" y="16.36" width="4.4" height="4.4"/><rect class="cls-1" x="29.29" y="16.36" width="4.4" height="4.4"/><rect class="cls-1" x="11.13" y="24.86" width="4.4" height="4.4"/><rect class="cls-1" x="20.21" y="24.86" width="4.4" height="4.4"/><path class="cls-1" d="M87.29,41.51H50V0H87.29ZM52,39.51H85.29V2H52Z"/><rect class="cls-1" x="46.25" y="39.51" width="44.82" height="2"/><rect class="cls-1" x="57.38" y="7.86" width="4.4" height="4.4"/><rect class="cls-1" x="66.46" y="7.86" width="4.4" height="4.4"/><rect class="cls-1" x="75.54" y="7.86" width="4.4" height="4.4"/><rect class="cls-1" x="57.38" y="16.36" width="4.4" height="4.4"/><rect class="cls-1" x="66.46" y="16.36" width="4.4" height="4.4"/><rect class="cls-1" x="75.54" y="16.36" width="4.4" height="4.4"/><rect class="cls-1" x="57.38" y="24.86" width="4.4" height="4.4"/><rect class="cls-1" x="66.46" y="24.86" width="4.4" height="4.4"/><path class="cls-1" d="M127.86,41.51H90.59V0h37.27Zm-35.27-2h33.27V2H92.59Z"/><rect class="cls-1" x="86.82" y="39.51" width="44.82" height="2"/><rect class="cls-1" x="97.94" y="7.86" width="4.4" height="4.4"/><rect class="cls-1" x="107.03" y="7.86" width="4.4" height="4.4"/><rect class="cls-1" x="116.11" y="7.86" width="4.4" height="4.4"/><rect class="cls-1" x="97.94" y="16.36" width="4.4" height="4.4"/><rect class="cls-1" x="107.03" y="16.36" width="4.4" height="4.4"/><rect class="cls-1" x="116.11" y="16.36" width="4.4" height="4.4"/><rect class="cls-1" x="97.94" y="24.86" width="4.4" height="4.4"/><rect class="cls-1" x="107.03" y="24.86" width="4.4" height="4.4"/></g></g></svg>