<?xml version="1.0" encoding="utf-8"?>
<!-- Generator: Adobe Illustrator 22.1.0, SVG Export Plug-In . SVG Version: 6.00 Build 0)  -->
<svg version="1.1" id="Layer_1" xmlns="http://www.w3.org/2000/svg" xmlns:xlink="http://www.w3.org/1999/xlink" x="0px" y="0px"
	 viewBox="0 0 152.8 63.7" style="enable-background:new 0 0 152.8 63.7;" xml:space="preserve">
<style type="text/css">
	.st0{fill:#221F1F;}
</style>
<title>How_02SeriesA</title>
<g id="Layer_2_1_">
	<g id="Layer_1-2">
		<rect y="61.7" class="st0" width="70.6" height="2"/>
		<path class="st0" d="M34,35.4h-6.4V29H34V35.4z M29.6,33.4H32V31h-2.4L29.6,33.4z"/>
		<path class="st0" d="M43.1,35.4h-6.4V29h6.4L43.1,35.4z M38.7,33.4h2.4V31h-2.4L38.7,33.4z"/>
		<path class="st0" d="M34,43.9h-6.4v-6.4H34V43.9z M29.6,41.9H32v-2.4h-2.4L29.6,41.9z"/>
		<path class="st0" d="M43.1,43.9h-6.4v-6.4h6.4L43.1,43.9z M38.7,41.9h2.4v-2.4h-2.4L38.7,41.9z"/>
		<path class="st0" d="M34,26.9h-6.4v-6.4H34V26.9z M29.6,24.9H32v-2.4h-2.4L29.6,24.9z"/>
		<path class="st0" d="M43.1,26.9h-6.4v-6.4h6.4L43.1,26.9z M38.7,24.9h2.4v-2.4h-2.4L38.7,24.9z"/>
		<path class="st0" d="M34,18.4h-6.4V12H34V18.4z M29.6,16.4H32V14h-2.4L29.6,16.4z"/>
		<path class="st0" d="M43.1,18.4h-6.4V12h6.4L43.1,18.4z M38.7,16.4h2.4V14h-2.4L38.7,16.4z"/>
		<path class="st0" d="M34,52.4h-6.4V46H34V52.4z M29.6,50.4H32V48h-2.4L29.6,50.4z"/>
		<path class="st0" d="M43.1,52.4h-6.4V46h6.4L43.1,52.4z M38.7,50.4h2.4V48h-2.4L38.7,50.4z"/>
		<path class="st0" d="M48.6,63.7H22.1V3.3h2.3V0h21.9v3.3h2.3V63.7z M24.1,61.7h22.5V5.3h-2.3V2H26.4v3.3h-2.3V61.7z"/>
		<rect x="41.1" y="61.7" class="st0" width="70.6" height="2"/>
		<path class="st0" d="M75.1,35.4h-6.4V29h6.4V35.4z M70.7,33.4h2.4V31h-2.4V33.4z"/>
		<path class="st0" d="M84.2,35.4h-6.4V29h6.4V35.4z M79.8,33.4h2.4V31h-2.4V33.4z"/>
		<path class="st0" d="M75.1,43.9h-6.4v-6.4h6.4V43.9z M70.7,41.9h2.4v-2.4h-2.4V41.9z"/>
		<path class="st0" d="M84.2,43.9h-6.4v-6.4h6.4V43.9z M79.8,41.9h2.4v-2.4h-2.4V41.9z"/>
		<path class="st0" d="M75.1,26.9h-6.4v-6.4h6.4V26.9z M70.7,24.9h2.4v-2.4h-2.4V24.9z"/>
		<path class="st0" d="M84.2,26.9h-6.4v-6.4h6.4V26.9z M79.8,24.9h2.4v-2.4h-2.4V24.9z"/>
		<path class="st0" d="M75.1,18.4h-6.4V12h6.4V18.4z M70.7,16.4h2.4V14h-2.4V16.4z"/>
		<path class="st0" d="M84.2,18.4h-6.4V12h6.4V18.4z M79.8,16.4h2.4V14h-2.4V16.4z"/>
		<path class="st0" d="M75.1,52.4h-6.4V46h6.4V52.4z M70.7,50.4h2.4V48h-2.4V50.4z"/>
		<path class="st0" d="M84.2,52.4h-6.4V46h6.4V52.4z M79.8,50.4h2.4V48h-2.4V50.4z"/>
		<path class="st0" d="M89.7,63.7H63.2V3.3h2.3V0h21.9v3.3h2.3V63.7z M65.2,61.7h22.5V5.3h-2.3V2H67.5v3.3h-2.3V61.7z"/>
		<rect x="82.2" y="61.7" class="st0" width="70.6" height="2"/>
		<path class="st0" d="M116.2,35.4h-6.4V29h6.4V35.4z M111.8,33.4h2.4V31h-2.4V33.4z"/>
		<path class="st0" d="M125.3,35.4h-6.4V29h6.4V35.4z M120.9,33.4h2.4V31h-2.4V33.4z"/>
		<path class="st0" d="M116.2,43.9h-6.4v-6.4h6.4V43.9z M111.8,41.9h2.4v-2.4h-2.4V41.9z"/>
		<path class="st0" d="M125.3,43.9h-6.4v-6.4h6.4V43.9z M120.9,41.9h2.4v-2.4h-2.4V41.9z"/>
		<path class="st0" d="M116.2,26.9h-6.4v-6.4h6.4V26.9z M111.8,24.9h2.4v-2.4h-2.4V24.9z"/>
		<path class="st0" d="M125.3,26.9h-6.4v-6.4h6.4V26.9z M120.9,24.9h2.4v-2.4h-2.4V24.9z"/>
		<path class="st0" d="M116.2,18.4h-6.4V12h6.4V18.4z M111.8,16.4h2.4V14h-2.4V16.4z"/>
		<path class="st0" d="M125.3,18.4h-6.4V12h6.4V18.4z M120.9,16.4h2.4V14h-2.4V16.4z"/>
		<path class="st0" d="M116.2,52.4h-6.4V46h6.4V52.4z M111.8,50.4h2.4V48h-2.4V50.4z"/>
		<path class="st0" d="M125.3,52.4h-6.4V46h6.4V52.4z M120.9,50.4h2.4V48h-2.4V50.4z"/>
		<path class="st0" d="M130.8,63.7h-26.5V3.3h2.3V0h21.9v3.3h2.3V63.7z M106.3,61.7h22.5V5.3h-2.3V2h-17.9v3.3h-2.3V61.7z"/>
	</g>
</g>
</svg>
