<?xml version="1.0" encoding="utf-8"?>
<!-- Generator: Adobe Illustrator 22.1.0, SVG Export Plug-In . SVG Version: 6.00 Build 0)  -->
<svg version="1.1" id="Layer_1" xmlns="http://www.w3.org/2000/svg" xmlns:xlink="http://www.w3.org/1999/xlink" x="0px" y="0px"
	 viewBox="0 0 136.8 63.7" style="enable-background:new 0 0 136.8 63.7;" xml:space="preserve">
<style type="text/css">
	.st0{fill:#221F1F;}
</style>
<title>How_03SeriesB</title>
<g id="Layer_2_1_">
	<g id="Layer_1-2">
		<rect y="61.7" class="st0" width="70.6" height="2"/>
		<path class="st0" d="M34,35.4h-6.4V29H34V35.4z M29.6,33.4H32V31h-2.4L29.6,33.4z"/>
		<path class="st0" d="M43.1,35.4h-6.4V29h6.4L43.1,35.4z M38.7,33.4h2.4V31h-2.4L38.7,33.4z"/>
		<path class="st0" d="M34,43.9h-6.4v-6.4H34V43.9z M29.6,41.9H32v-2.4h-2.4L29.6,41.9z"/>
		<path class="st0" d="M43.1,43.9h-6.4v-6.4h6.4L43.1,43.9z M38.7,41.9h2.4v-2.4h-2.4L38.7,41.9z"/>
		<path class="st0" d="M34,26.9h-6.4v-6.4H34V26.9z M29.6,24.9H32v-2.4h-2.4L29.6,24.9z"/>
		<path class="st0" d="M43.1,26.9h-6.4v-6.4h6.4L43.1,26.9z M38.7,24.9h2.4v-2.4h-2.4L38.7,24.9z"/>
		<path class="st0" d="M34,18.4h-6.4V12H34V18.4z M29.6,16.4H32V14h-2.4L29.6,16.4z"/>
		<path class="st0" d="M43.1,18.4h-6.4V12h6.4L43.1,18.4z M38.7,16.4h2.4V14h-2.4L38.7,16.4z"/>
		<path class="st0" d="M34,52.4h-6.4V46H34V52.4z M29.6,50.4H32V48h-2.4L29.6,50.4z"/>
		<path class="st0" d="M43.1,52.4h-6.4V46h6.4L43.1,52.4z M38.7,50.4h2.4V48h-2.4L38.7,50.4z"/>
		<path class="st0" d="M48.6,63.7H22.1V3.3h2.3V0h21.9v3.3h2.3V63.7z M24.1,61.7h22.5V5.3h-2.3V2H26.4v3.3h-2.3V61.7z"/>
		<path class="st0" d="M24.1,63.7H3.8V31.2h20.3V63.7z M5.8,61.7h16.3V33.2H5.8L5.8,61.7z"/>
		<path class="st0" d="M19.8,43.2H8.2v-5.7h11.6V43.2z M10.2,41.2h7.6v-1.7h-7.6L10.2,41.2z"/>
		<rect x="13" y="38.7" class="st0" width="2" height="3.5"/>
		<path class="st0" d="M19.8,51.1H8.2v-5.7h11.6V51.1z M10.2,49.1h7.6v-1.7h-7.6L10.2,49.1z"/>
		<rect x="13" y="46.6" class="st0" width="2" height="3.5"/>
		<rect x="66.2" y="61.7" class="st0" width="70.6" height="2"/>
		<path class="st0" d="M102.8,29h6.4v6.4h-6.4V29z M107.2,31h-2.4v2.4h2.4V31z"/>
		<path class="st0" d="M93.7,29h6.4v6.4h-6.4V29z M98.1,31h-2.4v2.4h2.4V31z"/>
		<path class="st0" d="M102.8,37.5h6.4v6.4h-6.4V37.5z M107.2,39.5h-2.4v2.4h2.4V39.5z"/>
		<path class="st0" d="M93.7,37.5h6.4v6.4h-6.4V37.5z M98.1,39.5h-2.4v2.4h2.4V39.5z"/>
		<path class="st0" d="M102.8,20.5h6.4v6.4h-6.4V20.5z M107.2,22.5h-2.4v2.4h2.4V22.5z"/>
		<path class="st0" d="M93.7,20.5h6.4v6.4h-6.4V20.5z M98.1,22.5h-2.4v2.4h2.4V22.5z"/>
		<path class="st0" d="M102.8,12h6.4v6.4h-6.4V12z M107.2,14h-2.4v2.4h2.4V14z"/>
		<path class="st0" d="M93.7,12h6.4v6.4h-6.4V12z M98.1,14h-2.4v2.4h2.4V14z"/>
		<path class="st0" d="M102.8,46h6.4v6.4h-6.4V46z M107.2,48h-2.4v2.4h2.4V48z"/>
		<path class="st0" d="M93.7,46h6.4v6.4h-6.4V46z M98.1,48h-2.4v2.4h2.4V48z"/>
		<path class="st0" d="M88.2,3.3h2.3V0h21.9v3.3h2.3v60.4H88.2V3.3z M112.7,5.3h-2.3V2H92.5v3.3h-2.3v56.4h22.5V5.3z"/>
		<path class="st0" d="M112.7,31.2H133v32.4h-20.3V31.2z M131,33.2h-16.3v28.5H131L131,33.2z"/>
		<path class="st0" d="M117,37.5h11.6v5.7H117V37.5z M126.6,39.5H119v1.7h7.6V39.5z"/>
		<rect x="121.8" y="38.7" class="st0" width="2" height="3.5"/>
		<path class="st0" d="M117,45.4h11.6v5.7H117V45.4z M126.6,47.4H119v1.7h7.6V47.4z"/>
		<rect x="121.8" y="46.6" class="st0" width="2" height="3.5"/>
	</g>
</g>
</svg>
