<svg xmlns="http://www.w3.org/2000/svg" viewBox="0 0 139.65 41.69"><defs><style>.cls-1{fill:#2f3c47;}</style></defs><title>Why_Vertical</title><g id="Layer_2" data-name="Layer 2"><g id="Layer_1-2" data-name="Layer 1"><path class="cls-1" d="M35.14,11,18.33.61a1,1,0,0,0-1,0L.47,11a1,1,0,0,0-.47.85V30.78a1,1,0,0,0,.52.88L18,41.11a1,1,0,0,0,.47.12A1,1,0,0,0,19,41.1l16.15-9.46a1,1,0,0,0,.5-.86V11.86A1,1,0,0,0,35.14,11ZM17.8,1.46l16.33,10.1L18.44,20.75l-17-9.19ZM1,12.43l17,9.19V40L1,30.78ZM19,39.94V21.61l15.66-9.17V30.78Z"/><path class="cls-1" d="M13.18,26.05,5.64,21.89a.5.5,0,0,0-.74.44v8.83a.48.48,0,0,0,.27.44l7.54,4.16a.53.53,0,0,0,.24.06.43.43,0,0,0,.25-.07.5.5,0,0,0,.25-.43V26.49A.51.51,0,0,0,13.18,26.05Zm-.73,8.44L5.9,30.86v-7.7l6.55,3.63Z"/><path class="cls-1" d="M26.07,25.73a.5.5,0,0,0-.5,0l-4.81,2.82a.5.5,0,0,0-.25.43V34.6a.52.52,0,0,0,.25.44.57.57,0,0,0,.25.06.43.43,0,0,0,.25-.07l4.81-2.81a.5.5,0,0,0,.25-.43V26.16A.52.52,0,0,0,26.07,25.73Zm-.75,5.77-3.81,2.23V29.26L25.32,27Z"/><path class="cls-1" d="M32.78,21.84a.5.5,0,0,0-.5,0l-4.81,2.81a.52.52,0,0,0-.25.43v5.63a.49.49,0,0,0,.26.43.42.42,0,0,0,.24.07.48.48,0,0,0,.26-.07l4.8-2.81A.5.5,0,0,0,33,27.9V22.27A.5.5,0,0,0,32.78,21.84ZM32,27.61l-3.81,2.23V25.37L32,23.14Z"/><path class="cls-1" d="M86.15,28.47l.08-15.25a1.84,1.84,0,1,0-1.77-3.09L71.07,2.3a1.7,1.7,0,0,0,.06-.46,1.85,1.85,0,0,0-3.69,0,2.13,2.13,0,0,0,.06.45L53.88,10.13a1.84,1.84,0,1,0-1.79,3.09V28.47a1.84,1.84,0,0,0,.51,3.61,1.82,1.82,0,0,0,1.27-.51l13.3,7.81a1.84,1.84,0,1,0,3.62.47,1.63,1.63,0,0,0-.06-.45l13.62-7.84a1.84,1.84,0,1,0,1.8-3.09ZM84.93,11.24A1,1,0,0,0,85,11l.2-.15a.78.78,0,0,1,.58-.24.85.85,0,0,1,.84.84.83.83,0,0,1-.62.81.94.94,0,0,0-.23.1.6.6,0,0,0-.23-.1.87.87,0,0,1-.3-.16A.77.77,0,0,0,85,12a.69.69,0,0,0,0-.24,1,1,0,0,1,0-.27A.68.68,0,0,1,84.93,11.24ZM84,11a1.69,1.69,0,0,0-.07.45A1.81,1.81,0,0,0,84,12L69.63,20l.14-16.37a1.82,1.82,0,0,0,.79-.45ZM69.29,1a.85.85,0,0,1,.84.84.88.88,0,0,1,0,.21,1.13,1.13,0,0,0,0,.25,1,1,0,0,0-.2.15.8.8,0,0,1-.36.2.94.94,0,0,0-.23.1.67.67,0,0,0-.23-.1.81.81,0,0,1-.35-.2,1,1,0,0,0-.2-.15,1.07,1.07,0,0,0,0-.25,1,1,0,0,1,0-.21A.85.85,0,0,1,69.29,1ZM68,3.17a2,2,0,0,0,.77.44L68.62,20l-14.24-8.1a1.56,1.56,0,0,0,.06-.44,1.61,1.61,0,0,0-.06-.44ZM51.75,11.45a.85.85,0,0,1,.85-.84.89.89,0,0,1,.59.24.9.9,0,0,0,.19.15,1.07,1.07,0,0,0,0,.25.88.88,0,0,1,0,.2.81.81,0,0,1,0,.2,1.15,1.15,0,0,0,0,.26.9.9,0,0,0-.19.15.84.84,0,0,1-.36.2.94.94,0,0,0-.23.1.94.94,0,0,0-.23-.1A.84.84,0,0,1,51.75,11.45Zm1.66,19a1.07,1.07,0,0,0,0,.25,1,1,0,0,0-.2.15.85.85,0,0,1-1.43-.61.86.86,0,0,1,.62-.81.67.67,0,0,0,.23-.1.67.67,0,0,0,.23.1.76.76,0,0,1,.28.15,1,1,0,0,0,.22.13,1.05,1.05,0,0,0,.06.24,1.1,1.1,0,0,1,0,.29A1,1,0,0,1,53.41,30.45Zm.32-1.66a2,2,0,0,0-.63-.32V13.22a1.83,1.83,0,0,0,.79-.45l14.2,8.07Zm.65,1.91a1.76,1.76,0,0,0,.06-.46,1.9,1.9,0,0,0-.11-.63L68.61,21.7l-.15,16.38a1.82,1.82,0,0,0-.79.44Zm14.56,10a.85.85,0,0,1-.84-.84.88.88,0,0,1,0-.21,1.18,1.18,0,0,0,0-.25.9.9,0,0,0,.19-.15.91.91,0,0,1,.36-.2.67.67,0,0,0,.23-.1.67.67,0,0,0,.23.1.92.92,0,0,1,.35.2,1,1,0,0,0,.2.15,1,1,0,0,0,0,.25,1,1,0,0,1,0,.21A.85.85,0,0,1,68.94,40.69Zm1.29-2.16a1.69,1.69,0,0,0-.77-.44l.15-16.38L83.85,29.8a1.61,1.61,0,0,0-.06.44,2.12,2.12,0,0,0,.06.44Zm14.11-9.61-14.2-8.07,14.42-8a1.68,1.68,0,0,0,.67.36l-.09,15.25A1.87,1.87,0,0,0,84.34,28.92Zm1.3,2.16a.82.82,0,0,1-.59-.24,1,1,0,0,0-.2-.15,1.13,1.13,0,0,0,0-.25.88.88,0,0,1,0-.2.81.81,0,0,1,0-.2,1.13,1.13,0,0,0,0-.25.9.9,0,0,0,.19-.15.85.85,0,0,1,.37-.21.31.31,0,0,1,.46,0,.84.84,0,0,1-.23,1.65Z"/><path class="cls-1" d="M139.16,11,123,1.48a1,1,0,0,0-.51-.14,1,1,0,0,0-.47.13L104.56,11a1,1,0,0,0-.52.88V30.78a1,1,0,0,0,.52.88L122,41.11a1,1,0,0,0,.47.12,1,1,0,0,0,.51-.13l16.16-9.46a1,1,0,0,0,.49-.86V11.86A1,1,0,0,0,139.16,11ZM122.49,2.34l15.67,9.23-4.55,2.66L117.74,4.94Zm0,18.41-16.92-9.17,5.3-2.89L127,18.13Zm5.46-3.2L112,8.17l4.8-2.66,15.87,9.3Zm.55.89,4.67-2.73v6.73l-4.67,2.74Zm-23.45-6L122,21.62V40L105,30.78ZM123,39.94V21.61l4.5-2.64v7.08a.49.49,0,0,0,.26.43.42.42,0,0,0,.24.07.48.48,0,0,0,.26-.07l5.66-3.32a.5.5,0,0,0,.25-.43V15.07l4.49-2.63V30.78Z"/></g></g></svg>