<svg xmlns="http://www.w3.org/2000/svg" viewBox="0 0 57.16 57.87"><defs><style>.cls-1{fill:#221f1f;}</style></defs><title>Why_Vertical</title><g id="Layer_2" data-name="Layer 2"><g id="Layer_1-2" data-name="Layer 1"><path class="cls-1" d="M57.16,23.38a23.38,23.38,0,0,0-46.74-1H3.83l4.45-4.45L6.87,16.52,0,23.38l6.87,6.87,1.41-1.42L3.83,24.38h6.59A23.41,23.41,0,0,0,23.28,44.26v7.39h-4v6.22H48.32V51.65h-4V44.26A23.4,23.4,0,0,0,57.16,23.38Zm-44.71,1H17a16.82,16.82,0,1,0,0-2H12.45a21.38,21.38,0,1,1,0,2Zm17.59,0a3.89,3.89,0,1,0,0-2H19a14.83,14.83,0,1,1,0,2Zm1.85-1a1.89,1.89,0,1,1,1.89,1.89A1.89,1.89,0,0,1,31.89,23.38ZM46.32,53.65v2.22H21.24V53.65H46.32Zm-4-2h-17V45.16a23.38,23.38,0,0,0,17,0Z"/></g></g></svg>