<svg xmlns="http://www.w3.org/2000/svg" viewBox="0 0 63.47 49.11"><defs><style>.cls-1{fill:#2f3c47;}</style></defs><title>Pitch_You</title><g id="Layer_2" data-name="Layer 2"><g id="Layer_1-2" data-name="Layer 1"><path class="cls-1" d="M18.35,18.19a9.1,9.1,0,1,1,9.1-9.09A9.1,9.1,0,0,1,18.35,18.19Zm0-16.11a7,7,0,1,0,7,7A7,7,0,0,0,18.35,2.08Z"/><path class="cls-1" d="M37.79,40.76A18.9,18.9,0,1,0,0,40.76v8.35H2.22V40.76a16.68,16.68,0,0,1,33.35,0Z"/><path class="cls-1" d="M44,18.19A9.1,9.1,0,1,1,53.12,9.1,9.11,9.11,0,0,1,44,18.19ZM44,2.08a7,7,0,1,0,7,7A7,7,0,0,0,44,2.08Z"/><path class="cls-1" d="M44.57,21.86a18.78,18.78,0,0,0-12.83,5.08,19.27,19.27,0,0,1,1.54,1.59,16.65,16.65,0,0,1,28,12.23v8.35h2.22V40.76A18.92,18.92,0,0,0,44.57,21.86Z"/></g></g></svg>